<?xml version="1.0" encoding="UTF-8" standalone="no"?>
<!-- Created with Inkscape (http://www.inkscape.org/) -->

<svg
   xmlns:dc="http://purl.org/dc/elements/1.1/"
   xmlns:cc="http://creativecommons.org/ns#"
   xmlns:rdf="http://www.w3.org/1999/02/22-rdf-syntax-ns#"
   xmlns:svg="http://www.w3.org/2000/svg"
   xmlns="http://www.w3.org/2000/svg"
   xmlns:sodipodi="http://sodipodi.sourceforge.net/DTD/sodipodi-0.dtd"
   xmlns:inkscape="http://www.inkscape.org/namespaces/inkscape"
   width="58.584702mm"
   height="42.549732mm"
   viewBox="0 0 58.584702 42.549732"
   version="1.1"
   id="svg8"
   sodipodi:docname="disegno.svg"
   inkscape:version="0.92.4 (f8dce91, 2019-08-02)">
  <defs
     id="defs2" />
  <sodipodi:namedview
     id="base"
     pagecolor="#ffffff"
     bordercolor="#666666"
     borderopacity="1.0"
     inkscape:pageopacity="0.0"
     inkscape:pageshadow="2"
     inkscape:zoom="1.979899"
     inkscape:cx="178.66862"
     inkscape:cy="63.310551"
     inkscape:document-units="mm"
     inkscape:current-layer="layer1"
     showgrid="false"
     inkscape:window-width="1299"
     inkscape:window-height="713"
     inkscape:window-x="67"
     inkscape:window-y="27"
     inkscape:window-maximized="1" />
  <metadata
     id="metadata5">
    <rdf:RDF>
      <cc:Work
         rdf:about="">
        <dc:format>image/svg+xml</dc:format>
        <dc:type
           rdf:resource="http://purl.org/dc/dcmitype/StillImage" />
        <dc:title></dc:title>
      </cc:Work>
    </rdf:RDF>
  </metadata>
  <g
     inkscape:label="Livello 1"
     inkscape:groupmode="layer"
     id="layer1"
     transform="translate(-39.514449,-130.91121)">
    <g
       id="g4807">
      <g
         aria-label="ELOQUENT
 ARDUINO"
         style="font-style:normal;font-variant:normal;font-weight:normal;font-stretch:normal;font-size:10.58333302px;line-height:1.25;font-family:'Bungee Inline';-inkscape-font-specification:'Bungee Inline';letter-spacing:0px;word-spacing:0px;fill:#ffffff;fill-opacity:1;stroke:none;stroke-width:0.26458332"
         id="text12">
        <path
           d="m 44.806119,160.07303 h -4.910666 q -0.201084,0 -0.296334,-0.0847 -0.08467,-0.0952 -0.08467,-0.29633 v -6.858 q 0,-0.20108 0.08467,-0.28575 0.09525,-0.0952 0.296334,-0.0952 h 4.910666 q 0.201083,0 0.28575,0.0952 0.09525,0.0847 0.09525,0.28575 v 1.23825 q 0,0.20108 -0.09525,0.29633 -0.08467,0.0847 -0.28575,0.0847 h -2.921 v 0.81492 h 2.06375 q 0.201083,0 0.28575,0.0952 0.09525,0.0847 0.09525,0.28575 v 1.13241 q 0,0.20109 -0.09525,0.29634 -0.08467,0.0847 -0.28575,0.0847 h -2.06375 v 0.91017 h 2.921 q 0.201083,0 0.28575,0.0952 0.09525,0.0847 0.09525,0.28575 v 1.23825 q 0,0.20108 -0.09525,0.29633 -0.08467,0.0847 -0.28575,0.0847 z m -0.5715,-1.05833 h -3.46075 v -2.74109 h 2.6035 v -0.10583 h -2.6035 v -2.65642 h 3.46075 v -0.10583 h -3.566583 v 5.715 h 3.566583 z"
           style="fill:#ffffff;stroke-width:0.26458332"
           id="path4809"
           inkscape:connector-curvature="0" />
        <path
           d="m 52.207011,160.07303 h -5.386917 q -0.201083,0 -0.296333,-0.0847 -0.08467,-0.0952 -0.08467,-0.29633 v -6.858 q 0,-0.20108 0.08467,-0.28575 0.09525,-0.0952 0.296333,-0.0952 h 1.640417 q 0.201083,0 0.28575,0.0952 0.09525,0.0847 0.09525,0.28575 v 5.23875 h 1.449916 v -1.7145 q 0,-0.20108 0.08467,-0.28575 0.09525,-0.0952 0.296333,-0.0952 h 1.534584 q 0.201083,0 0.28575,0.0952 0.09525,0.0847 0.09525,0.28575 v 3.33375 q 0,0.20108 -0.09525,0.29633 -0.08467,0.0847 -0.28575,0.0847 z m -4.614334,-0.9525 h 3.894667 v -2.19075 h -0.105833 v 2.08492 h -3.683 v -5.60917 h -0.105834 z"
           style="fill:#ffffff;stroke-width:0.26458332"
           id="path4811"
           inkscape:connector-curvature="0" />
        <path
           d="m 60.253651,158.07278 q 0,0.48683 -0.148167,0.889 -0.137583,0.39158 -0.508,0.67733 -0.359833,0.27517 -1.005416,0.43392 -0.635,0.15875 -1.61925,0.15875 -0.98425,0 -1.629834,-0.15875 -0.645583,-0.15875 -1.016,-0.43392 -0.359833,-0.28575 -0.508,-0.67733 -0.137583,-0.40217 -0.137583,-0.889 v -3.60892 q 0,-0.48683 0.137583,-0.87841 0.148167,-0.40217 0.508,-0.68792 0.370417,-0.28575 1.016,-0.4445 0.645584,-0.15875 1.629834,-0.15875 0.98425,0 1.61925,0.15875 0.645583,0.15875 1.005416,0.4445 0.370417,0.28575 0.508,0.68792 0.148167,0.39158 0.148167,0.87841 z m -1.153583,-0.24342 v -3.12208 q 0,-0.635 -0.455084,-1.02658 -0.455083,-0.40217 -1.693333,-0.40217 -1.23825,0 -1.68275,0.40217 -0.4445,0.39158 -0.4445,1.02658 v 3.12208 q 0,0.635 0.4445,1.03717 0.4445,0.39158 1.68275,0.39158 1.23825,0 1.693333,-0.39158 0.455084,-0.40217 0.455084,-1.03717 z m -4.169834,0 v -3.12208 q 0,-0.59267 0.423334,-0.9525 0.423333,-0.37042 1.598083,-0.37042 1.17475,0 1.608667,0.37042 0.433916,0.35983 0.433916,0.9525 v 3.12208 q 0,0.59267 -0.433916,0.96309 -0.433917,0.35983 -1.608667,0.35983 -1.17475,0 -1.598083,-0.35983 -0.423334,-0.37042 -0.423334,-0.96309 z m 1.153584,-0.13758 q 0,0.21167 0.15875,0.35983 0.15875,0.13759 0.73025,0.13759 0.5715,0 0.73025,-0.13759 0.15875,-0.14816 0.15875,-0.35983 v -2.84692 q 0,-0.20108 -0.15875,-0.33866 -0.15875,-0.14817 -0.73025,-0.14817 -0.5715,0 -0.73025,0.14817 -0.15875,0.13758 -0.15875,0.33866 z"
           style="fill:#ffffff;stroke-width:0.26458332"
           id="path4813"
           inkscape:connector-curvature="0" />
        <path
           d="m 65.569958,161.02553 h -1.629834 q -0.201083,0 -0.296333,-0.0952 -0.08467,-0.0847 -0.08467,-0.28575 v -0.58208 q -1.227666,-0.17992 -1.661583,-0.73025 -0.423333,-0.56092 -0.423333,-1.35467 v -3.51367 q 0,-0.48683 0.137583,-0.87841 0.148167,-0.40217 0.508,-0.68792 0.370417,-0.28575 1.016,-0.4445 0.645583,-0.15875 1.629833,-0.15875 0.98425,0 1.61925,0.15875 0.645584,0.15875 1.005417,0.4445 0.370417,0.28575 0.508,0.68792 0.148167,0.39158 0.148167,0.87841 v 3.51367 q 0,0.40217 -0.09525,0.75142 -0.09525,0.33866 -0.328084,0.60325 -0.232833,0.26458 -0.645583,0.45508 -0.402167,0.1905 -1.026583,0.27517 v 0.58208 q 0,0.20108 -0.09525,0.28575 -0.08467,0.0952 -0.28575,0.0952 z m -0.878417,-0.9525 h 0.105833 v -0.81492 q 1.2065,-0.0106 1.651,-0.40216 0.4445,-0.39159 0.4445,-1.02659 v -3.12208 q 0,-0.635 -0.455083,-1.02658 -0.455083,-0.40217 -1.693333,-0.40217 -1.23825,0 -1.68275,0.40217 -0.4445,0.39158 -0.4445,1.02658 v 3.12208 q 0,0.635 0.433916,1.02659 0.433917,0.39158 1.640417,0.40216 z m -1.9685,-2.24367 v -3.12208 q 0,-0.59267 0.423333,-0.9525 0.423334,-0.37042 1.598084,-0.37042 1.17475,0 1.608666,0.37042 0.433917,0.35983 0.433917,0.9525 v 3.12208 q 0,0.59267 -0.433917,0.96309 -0.433916,0.35983 -1.608666,0.35983 -1.17475,0 -1.598084,-0.35983 -0.423333,-0.37042 -0.423333,-0.96309 z m 1.153583,-0.0847 q 0,0.21166 0.15875,0.35983 0.15875,0.13758 0.73025,0.13758 0.5715,0 0.73025,-0.13758 0.15875,-0.14817 0.15875,-0.35983 v -2.88925 q 0,-0.20109 -0.15875,-0.33867 -0.15875,-0.14817 -0.73025,-0.14817 -0.5715,0 -0.73025,0.14817 -0.15875,0.13758 -0.15875,0.33867 z"
           style="fill:#ffffff;stroke-width:0.26458332"
           id="path4815"
           inkscape:connector-curvature="0" />
        <path
           d="m 75.871012,158.07278 q 0,0.48683 -0.148166,0.889 -0.137584,0.39158 -0.508,0.67733 -0.359834,0.27517 -0.994834,0.43392 -0.635,0.15875 -1.61925,0.15875 -0.98425,0 -1.61925,-0.15875 -0.635,-0.15875 -1.005416,-0.43392 -0.359834,-0.28575 -0.508,-0.67733 -0.137584,-0.40217 -0.137584,-0.889 v -5.23875 q 0,-0.20108 0.08467,-0.28575 0.09525,-0.0952 0.296333,-0.0952 h 1.661584 q 0.201083,0 0.28575,0.0952 0.09525,0.0847 0.09525,0.28575 v 4.826 q 0,0.21167 0.15875,0.35983 0.15875,0.13759 0.709083,0.13759 0.560917,0 0.719667,-0.13759 0.15875,-0.14816 0.15875,-0.35983 v -4.826 q 0,-0.20108 0.08467,-0.28575 0.09525,-0.0952 0.296334,-0.0952 h 1.608666 q 0.201084,0 0.28575,0.0952 0.09525,0.0847 0.09525,0.28575 z m -5.376333,-4.66725 v 4.41325 q 0,0.635 0.433917,1.03717 0.4445,0.39158 1.68275,0.39158 1.23825,0 1.68275,-0.39158 0.4445,-0.40217 0.4445,-1.03717 v -4.41325 h -0.105834 v 4.41325 q 0,0.59267 -0.423333,0.96308 -0.423333,0.35984 -1.598083,0.35984 -1.17475,0 -1.598084,-0.35984 -0.41275,-0.37041 -0.41275,-0.96308 v -4.41325 z"
           style="fill:#ffffff;stroke-width:0.26458332"
           id="path4817"
           inkscape:connector-curvature="0" />
        <path
           d="m 82.571256,160.07303 h -4.910667 q -0.201083,0 -0.296333,-0.0847 -0.08467,-0.0952 -0.08467,-0.29633 v -6.858 q 0,-0.20108 0.08467,-0.28575 0.09525,-0.0952 0.296333,-0.0952 h 4.910667 q 0.201083,0 0.28575,0.0952 0.09525,0.0847 0.09525,0.28575 v 1.23825 q 0,0.20108 -0.09525,0.29633 -0.08467,0.0847 -0.28575,0.0847 h -2.921 v 0.81492 h 2.06375 q 0.201083,0 0.28575,0.0952 0.09525,0.0847 0.09525,0.28575 v 1.13241 q 0,0.20109 -0.09525,0.29634 -0.08467,0.0847 -0.28575,0.0847 h -2.06375 v 0.91017 h 2.921 q 0.201083,0 0.28575,0.0952 0.09525,0.0847 0.09525,0.28575 v 1.23825 q 0,0.20108 -0.09525,0.29633 -0.08467,0.0847 -0.28575,0.0847 z m -0.5715,-1.05833 h -3.46075 v -2.74109 h 2.6035 v -0.10583 h -2.6035 v -2.65642 h 3.46075 v -0.10583 h -3.566583 v 5.715 h 3.566583 z"
           style="fill:#ffffff;stroke-width:0.26458332"
           id="path4819"
           inkscape:connector-curvature="0" />
        <path
           d="m 85.60123,153.4902 q -0.05292,-0.0529 -0.08467,-0.0741 -0.03175,-0.0212 -0.07408,-0.0212 -0.04233,0 -0.08467,0.0318 -0.04233,0.0317 -0.04233,0.0952 v 5.59858 h 0.105833 v -5.57742 q 0,-0.0106 0,-0.0212 0.01058,-0.0106 0.02117,-0.0106 0.01058,0 0.02117,0.0106 0.02117,0.0106 0.03175,0.0212 l 4.000499,4.48734 v 1.09008 h 0.105834 v -5.715 h -0.105834 v 4.46617 z m 0.5715,6.58283 h -1.5875 q -0.201083,0 -0.296333,-0.0847 -0.08467,-0.0952 -0.08467,-0.29633 v -6.858 q 0,-0.20108 0.08467,-0.28575 0.09525,-0.0952 0.296333,-0.0952 h 1.100667 q 0.201083,0 0.338666,0.0635 0.148167,0.0635 0.28575,0.22225 l 2.053167,2.3495 v -2.25425 q 0,-0.20108 0.08467,-0.28575 0.09525,-0.0952 0.296334,-0.0952 h 1.5875 q 0.201083,0 0.28575,0.0952 0.09525,0.0847 0.09525,0.28575 v 6.858 q 0,0.20108 -0.09525,0.29633 -0.08467,0.0847 -0.28575,0.0847 h -1.5875 q -0.201084,0 -0.296334,-0.0847 -0.08467,-0.0952 -0.08467,-0.29633 v -1.30175 l -1.80975,-2.19075 v 3.4925 q 0,0.20108 -0.09525,0.29633 -0.08467,0.0847 -0.28575,0.0847 z"
           style="fill:#ffffff;stroke-width:0.26458332"
           id="path4821"
           inkscape:connector-curvature="0" />
        <path
           d="m 95.781403,160.07303 h -1.7145 q -0.201083,0 -0.296333,-0.0847 -0.08467,-0.0952 -0.08467,-0.29633 v -5.19642 h -1.55575 q -0.201083,0 -0.296333,-0.0847 -0.08467,-0.0953 -0.08467,-0.29634 v -1.28058 q 0,-0.20108 0.08467,-0.28575 0.09525,-0.0952 0.296333,-0.0952 h 5.588 q 0.201083,0 0.28575,0.0952 0.09525,0.0847 0.09525,0.28575 v 1.28058 q 0,0.20109 -0.09525,0.29634 -0.08467,0.0847 -0.28575,0.0847 H 96.1624 v 5.19642 q 0,0.20108 -0.09525,0.29633 -0.08467,0.0847 -0.28575,0.0847 z m -0.910167,-0.9525 h 0.105834 v -5.60917 h 2.169583 v -0.10583 h -4.445 v 0.10583 h 2.169583 z"
           style="fill:#ffffff;stroke-width:0.26458332"
           id="path4823"
           inkscape:connector-curvature="0" />
        <path
           d="m 42.898473,170.09544 q 0,-0.28575 0.04233,-0.52916 0.05292,-0.24342 0.127,-0.45509 l 0.677333,-1.73566 q 0.105833,-0.26458 0.232833,-0.4445 0.127,-0.1905 0.4445,-0.1905 h 1.037167 q 0.296333,0 0.423333,0.1905 0.127,0.17992 0.243417,0.45508 l 0.73025,1.72508 q 0.07408,0.21167 0.116416,0.45509 0.05292,0.24341 0.05292,0.52916 v 0.32809 h -4.1275 z m 1.693333,-2.19075 -0.497416,1.60867 h 1.661583 l -0.497417,-1.60867 q -0.04233,-0.0952 -0.09525,-0.13758 -0.04233,-0.0423 -0.105833,-0.0423 H 44.79289 q -0.0635,0 -0.116417,0.0423 -0.04233,0.0423 -0.08467,0.13758 z m 2.434167,4.445 h 0.105833 v -2.25425 q 0,-0.29633 -0.05292,-0.53975 -0.04233,-0.254 -0.127,-0.48683 l -0.73025,-1.72508 q -0.127,-0.30692 -0.275167,-0.508 -0.137583,-0.20108 -0.486833,-0.20108 h -1.037167 q -0.359833,0 -0.508,0.20108 -0.148166,0.20108 -0.264583,0.49742 l -0.677333,1.73566 q -0.08467,0.23283 -0.137584,0.48683 -0.04233,0.24342 -0.04233,0.53975 v 2.25425 h 0.105833 v -1.82033 h 4.1275 z m -3.037417,0.5715 q 0,0.20109 -0.09525,0.29634 -0.08467,0.0847 -0.285749,0.0847 h -1.55575 q -0.201084,0 -0.296334,-0.0847 -0.08467,-0.0953 -0.08467,-0.29634 v -2.794 q 0,-0.3175 0.09525,-0.73025 0.105833,-0.41275 0.3175,-0.96308 l 0.92075,-2.40241 q 0.0635,-0.17992 0.1905,-0.26459 0.137583,-0.0847 0.34925,-0.0847 h 2.846916 q 0.201083,0 0.328083,0.0847 0.137584,0.0847 0.201084,0.26459 l 0.92075,2.40241 q 0.211666,0.55033 0.306916,0.96308 0.105834,0.41275 0.105834,0.73025 v 2.794 q 0,0.20109 -0.09525,0.29634 -0.08467,0.0847 -0.28575,0.0847 h -1.598084 q -0.211666,0 -0.3175,-0.0847 -0.09525,-0.0953 -0.09525,-0.29634 v -1.48166 h -1.87325 z"
           style="fill:#ffffff;stroke-width:0.26458332"
           id="path4825"
           inkscape:connector-curvature="0" />
        <path
           d="m 53.116351,166.74053 q 0.560917,0 0.8255,0.30692 0.275167,0.30691 0.275167,0.79374 v 0.74084 q 0,0.58208 -0.22225,0.89958 -0.22225,0.3175 -0.878417,0.3175 h -2.307167 v -3.05858 z m -1.164167,0.84667 v 1.35466 h 0.79375 q 0.275167,0 0.370417,-0.13758 0.09525,-0.14817 0.09525,-0.35984 v -0.35983 q 0,-0.21167 -0.09525,-0.34925 -0.09525,-0.14816 -0.370417,-0.14816 z m -1.143,4.76249 v -2.45533 h 2.995084 q 0.60325,0 0.889,0.26458 0.285749,0.254 0.285749,0.77259 v 1.41816 h 0.105834 v -1.41816 q 0,-0.55034 -0.3175,-0.83609 -0.3175,-0.29633 -0.963083,-0.29633 h -0.116417 q 0.381,-0.11642 0.508,-0.42333 0.127,-0.3175 0.127,-0.80434 v -0.73025 q 0,-0.51858 -0.296333,-0.85724 -0.296334,-0.34925 -0.910167,-0.34925 h -2.413 v 5.71499 z m 0.762,0.9525 h -1.629833 q -0.201083,0 -0.296333,-0.0847 -0.08467,-0.0953 -0.08467,-0.29634 v -6.85799 q 0,-0.20109 0.08467,-0.28575 0.09525,-0.0952 0.296333,-0.0952 h 3.52425 q 1.185333,0 1.629833,0.49741 0.455083,0.48684 0.455083,1.27 v 0.48683 q 0,0.4445 -0.137583,0.762 -0.127,0.30692 -0.455083,0.4445 0.5715,0.0635 0.92075,0.46567 0.359833,0.40217 0.359833,1.06892 v 2.24366 q 0,0.20109 -0.09525,0.29634 -0.08467,0.0847 -0.28575,0.0847 h -1.640416 q -0.201084,0 -0.296334,-0.0847 -0.08467,-0.0953 -0.08467,-0.29634 v -1.61925 q 0,-0.23283 -0.09525,-0.33866 -0.08467,-0.11642 -0.306917,-0.11642 H 51.95218 v 2.07433 q 0,0.20109 -0.09525,0.29634 -0.08467,0.0847 -0.28575,0.0847 z"
           style="fill:#ffffff;stroke-width:0.26458332"
           id="path4827"
           inkscape:connector-curvature="0" />
        <path
           d="m 61.362751,173.30219 h -3.566584 q -0.201083,0 -0.296333,-0.0847 -0.08467,-0.0953 -0.08467,-0.29634 v -6.85799 q 0,-0.20109 0.08467,-0.28575 0.09525,-0.0952 0.296333,-0.0952 h 3.566584 q 1.322916,0 1.957916,0.52916 0.645584,0.52917 0.645584,1.62983 v 3.302 q 0,1.10067 -0.645584,1.62984 -0.635,0.52916 -1.957916,0.52916 z m -2.794,-0.9525 h 2.561166 q 0.53975,0 0.878417,-0.10583 0.338667,-0.11642 0.518583,-0.30692 0.179917,-0.1905 0.232834,-0.45508 0.0635,-0.26458 0.0635,-0.5715 v -2.80458 q 0,-0.30692 -0.0635,-0.5715 -0.0635,-0.27517 -0.243417,-0.46567 -0.179917,-0.20108 -0.518583,-0.3175 -0.328084,-0.11641 -0.867834,-0.11641 h -2.561166 z m 2.561166,-5.60916 q 0.497417,0 0.804334,0.10583 0.3175,0.10584 0.486833,0.28575 0.169333,0.17992 0.232833,0.43392 0.0635,0.254 0.0635,0.53975 v 2.80458 q 0,0.28575 -0.0635,0.53975 -0.05292,0.24342 -0.22225,0.42333 -0.169333,0.16934 -0.486833,0.27517 -0.306917,0.0953 -0.814917,0.0953 h -2.455333 v -5.50333 z m -1.312333,0.96308 v 3.59833 h 1.259417 q 0.254,0 0.370416,-0.127 0.127,-0.127 0.127,-0.39158 v -2.57175 q 0,-0.26458 -0.127,-0.381 -0.116416,-0.127 -0.370416,-0.127 z"
           style="fill:#ffffff;stroke-width:0.26458332"
           id="path4829"
           inkscape:connector-curvature="0" />
        <path
           d="m 71.798911,171.30194 q 0,0.48684 -0.148167,0.889 -0.137583,0.39159 -0.508,0.67734 -0.359833,0.27516 -0.994833,0.43391 -0.635,0.15875 -1.61925,0.15875 -0.98425,0 -1.61925,-0.15875 -0.635,-0.15875 -1.005417,-0.43391 -0.359833,-0.28575 -0.508,-0.67734 -0.137583,-0.40216 -0.137583,-0.889 v -5.23874 q 0,-0.20109 0.08467,-0.28575 0.09525,-0.0952 0.296333,-0.0952 h 1.661583 q 0.201083,0 0.28575,0.0952 0.09525,0.0847 0.09525,0.28575 v 4.82599 q 0,0.21167 0.15875,0.35984 0.15875,0.13758 0.709083,0.13758 0.560917,0 0.719667,-0.13758 0.15875,-0.14817 0.15875,-0.35984 v -4.82599 q 0,-0.20109 0.08467,-0.28575 0.09525,-0.0952 0.296333,-0.0952 h 1.608667 q 0.201083,0 0.28575,0.0952 0.09525,0.0847 0.09525,0.28575 z m -5.376333,-4.66724 v 4.41324 q 0,0.635 0.433916,1.03717 0.4445,0.39158 1.68275,0.39158 1.23825,0 1.68275,-0.39158 0.4445,-0.40217 0.4445,-1.03717 v -4.41324 h -0.105833 v 4.41324 q 0,0.59267 -0.423334,0.96309 -0.423333,0.35983 -1.598083,0.35983 -1.17475,0 -1.598083,-0.35983 -0.41275,-0.37042 -0.41275,-0.96309 v -4.41324 z"
           style="fill:#ffffff;stroke-width:0.26458332"
           id="path4831"
           inkscape:connector-curvature="0" />
        <path
           d="m 73.419151,173.30219 q -0.201084,0 -0.296334,-0.0847 -0.08467,-0.0953 -0.08467,-0.29634 v -1.25941 q 0,-0.20109 0.08467,-0.28575 0.09525,-0.0952 0.296334,-0.0952 H 74.4669 v -3.556 h -1.047749 q -0.201084,0 -0.296334,-0.0847 -0.08467,-0.0952 -0.08467,-0.29633 v -1.28058 q 0,-0.20109 0.08467,-0.28575 0.09525,-0.0952 0.296334,-0.0952 h 4.508499 q 0.201084,0 0.28575,0.0952 0.09525,0.0847 0.09525,0.28575 v 1.28058 q 0,0.20108 -0.09525,0.29633 -0.08467,0.0847 -0.28575,0.0847 h -1.026583 v 3.556 h 1.026583 q 0.201084,0 0.28575,0.0952 0.09525,0.0847 0.09525,0.28575 v 1.25941 q 0,0.20109 -0.09525,0.29634 -0.08467,0.0847 -0.28575,0.0847 z m 3.936999,-0.9525 v -0.10583 H 75.7369 v -5.50333 h 1.61925 v -0.10583 h -3.365499 v 0.10583 h 1.640416 v 5.50333 h -1.640416 v 0.10583 z"
           style="fill:#ffffff;stroke-width:0.26458332"
           id="path4833"
           inkscape:connector-curvature="0" />
        <path
           d="m 81.012363,166.71936 q -0.05292,-0.0529 -0.08467,-0.0741 -0.03175,-0.0212 -0.07408,-0.0212 -0.04233,0 -0.08467,0.0317 -0.04233,0.0318 -0.04233,0.0953 v 5.59858 h 0.105833 v -5.57741 q 0,-0.0106 0,-0.0212 0.01058,-0.0106 0.02117,-0.0106 0.01058,0 0.02117,0.0106 0.02117,0.0106 0.03175,0.0212 l 4.0005,4.48733 v 1.09008 h 0.105834 v -5.71499 h -0.105834 v 4.46616 z m 0.5715,6.58283 h -1.5875 q -0.201084,0 -0.296334,-0.0847 -0.08467,-0.0953 -0.08467,-0.29634 v -6.85799 q 0,-0.20109 0.08467,-0.28575 0.09525,-0.0952 0.296334,-0.0952 h 1.100666 q 0.201084,0 0.338667,0.0635 0.148167,0.0635 0.28575,0.22225 l 2.053167,2.34949 v -2.25424 q 0,-0.20109 0.08467,-0.28575 0.09525,-0.0952 0.296334,-0.0952 h 1.5875 q 0.201083,0 0.28575,0.0952 0.09525,0.0847 0.09525,0.28575 v 6.85799 q 0,0.20109 -0.09525,0.29634 -0.08467,0.0847 -0.28575,0.0847 h -1.5875 q -0.201084,0 -0.296334,-0.0847 -0.08467,-0.0953 -0.08467,-0.29634 v -1.30175 l -1.80975,-2.19075 v 3.4925 q 0,0.20109 -0.09525,0.29634 -0.08467,0.0847 -0.28575,0.0847 z"
           style="fill:#ffffff;stroke-width:0.26458332"
           id="path4835"
           inkscape:connector-curvature="0" />
        <path
           d="m 94.050036,171.30194 q 0,0.48684 -0.148167,0.889 -0.137583,0.39159 -0.508,0.67734 -0.359833,0.27516 -1.005417,0.43391 -0.635,0.15875 -1.619249,0.15875 -0.98425,0 -1.629834,-0.15875 -0.645583,-0.15875 -1.016,-0.43391 -0.359833,-0.28575 -0.508,-0.67734 -0.137583,-0.40216 -0.137583,-0.889 v -3.60891 q 0,-0.48683 0.137583,-0.87842 0.148167,-0.40216 0.508,-0.68791 0.370417,-0.28575 1.016,-0.4445 0.645584,-0.15875 1.629834,-0.15875 0.984249,0 1.619249,0.15875 0.645584,0.15875 1.005417,0.4445 0.370417,0.28575 0.508,0.68791 0.148167,0.39159 0.148167,0.87842 z m -1.153584,-0.24341 v -3.12209 q 0,-0.63499 -0.455083,-1.02658 -0.455083,-0.40216 -1.693333,-0.40216 -1.23825,0 -1.68275,0.40216 -0.4445,0.39159 -0.4445,1.02658 v 3.12209 q 0,0.635 0.4445,1.03716 0.4445,0.39159 1.68275,0.39159 1.23825,0 1.693333,-0.39159 0.455083,-0.40216 0.455083,-1.03716 z m -4.169833,0 v -3.12209 q 0,-0.59266 0.423334,-0.95249 0.423333,-0.37042 1.598083,-0.37042 1.17475,0 1.608666,0.37042 0.433917,0.35983 0.433917,0.95249 v 3.12209 q 0,0.59266 -0.433917,0.96308 -0.433916,0.35983 -1.608666,0.35983 -1.17475,0 -1.598083,-0.35983 -0.423334,-0.37042 -0.423334,-0.96308 z m 1.153584,-0.13759 q 0,0.21167 0.15875,0.35984 0.15875,0.13758 0.73025,0.13758 0.5715,0 0.730249,-0.13758 0.15875,-0.14817 0.15875,-0.35984 v -2.84691 q 0,-0.20109 -0.15875,-0.33867 -0.158749,-0.14816 -0.730249,-0.14816 -0.5715,0 -0.73025,0.14816 -0.15875,0.13758 -0.15875,0.33867 z"
           style="fill:#ffffff;stroke-width:0.26458332"
           id="path4837"
           inkscape:connector-curvature="0" />
      </g>
      <path
         inkscape:connector-curvature="0"
         id="path14"
         d="M 47.440341,163.2316 H 88.065307"
         style="fill:#ffffff;stroke:#ffffff;stroke-width:0.15749095px;stroke-linecap:butt;stroke-linejoin:miter;stroke-opacity:1" />
      <g
         style="fill:#ffffff"
         transform="matrix(0.26458333,0,0,0.26458333,54.059257,127.01469)"
         id="g33">
        <path
           style="fill:#ffffff"
           inkscape:connector-curvature="0"
           d="M 70.697,39.701 C 67.79,27.673 62.101,14.727 56.481,14.727 c -0.278,0 -0.556,0.033 -0.823,0.097 -1.225,0.296 -2.2,1.229 -2.916,2.744 -0.076,0.06 -0.159,0.106 -0.222,0.186 -3.146,4.022 -14.412,17.306 -27.265,20.412 l -9.82,2.534 c -0.039,0.009 -0.077,0.021 -0.115,0.033 a 12.194,12.194 0 0 0 -7.184,5.362 12.008,12.008 0 0 0 -1.463,9.205 12.014,12.014 0 0 0 5.506,7.52 c 2.771,1.672 6.048,2.169 9.225,1.402 L 23.44,63.73 h 0.003 l 2.449,-0.592 8.126,16.697 a 6.124,6.124 0 0 0 8.176,2.823 6.124,6.124 0 0 0 2.821,-8.176 l -6.57,-13.5 c 11.731,-0.099 23.711,5.353 26.449,6.681 0.98,0.73 1.973,1.135 2.964,1.135 0.278,0 0.556,-0.033 0.823,-0.098 2.594,-0.627 4.085,-4.076 4.312,-9.975 0.204,-5.297 -0.611,-12.053 -2.296,-19.024 z M 20.792,61.695 A 9.608,9.608 0 0 1 13.521,60.593 9.428,9.428 0 0 1 9.2,54.688 9.427,9.427 0 0 1 10.348,47.46 9.613,9.613 0 0 1 16.22,43.179 l 0.866,-0.21 4.481,18.538 z M 41.056,80.32 a 3.52,3.52 0 0 1 -4.7,-1.623 l -2.949,-6.059 6.409,-2.895 2.861,5.878 a 3.52,3.52 0 0 1 -1.621,4.699 z m -2.378,-12.916 -6.409,2.895 -3.789,-7.786 3.01,-0.728 a 28.536,28.536 0 0 1 4.129,-0.667 z m -7.8,-8.146 -6.784,1.639 -4.481,-18.539 6.255,-1.515 C 36.676,38.231 46.285,28.974 51.454,23.142 a 35.363,35.363 0 0 0 -0.107,1.657 c -0.107,2.758 0.069,5.917 0.495,9.291 0.006,0.048 -0.006,0.094 0.005,0.143 0.004,0.016 0.016,0.027 0.02,0.043 a 89.263,89.263 0 0 0 1.776,9.548 90.927,90.927 0 0 0 2.87,9.564 c 0.006,0.061 -0.008,0.119 0.007,0.18 0.043,0.177 0.127,0.328 0.23,0.465 1.283,3.438 2.746,6.592 4.308,9.1 C 54.066,60.36 41.753,56.628 30.878,59.258 Z M 54.622,35.237 c 1.959,0.539 4.284,3.213 5.269,7.284 0.977,4.046 0.149,7.465 -1.333,8.859 A 87.38,87.38 0 0 1 56.17,43.212 88.473,88.473 0 0 1 54.622,35.237 Z m 15.774,23.388 c -0.189,4.871 -1.304,7.301 -2.326,7.548 a 0.867,0.867 0 0 1 -0.212,0.024 c -0.23,0 -0.486,-0.071 -0.764,-0.208 a 1.277,1.277 0 0 0 -0.41,-0.341 C 66.63,65.62 66.49,65.547 66.28,65.443 c -1.881,-1.551 -4.42,-5.476 -6.779,-11.51 2.93,-1.8 4.207,-6.688 2.917,-12.024 -1.297,-5.364 -4.683,-9.147 -8.139,-9.372 -0.3,-2.763 -0.423,-5.352 -0.335,-7.639 0.188,-4.871 1.303,-7.3 2.325,-7.547 a 0.867,0.867 0 0 1 0.212,-0.024 c 2.507,0 8.112,8.185 11.689,22.985 1.631,6.745 2.421,13.248 2.226,18.313 z m 10.23,-19.726 a 1.3,1.3 0 0 1 -0.281,-2.563 l 8.494,-2.084 a 1.3,1.3 0 1 1 0.619,2.525 l -8.494,2.084 a 1.266,1.266 0 0 1 -0.338,0.038 z M 74.191,24.693 a 1.3,1.3 0 0 1 -0.785,-2.289 l 7.659,-6.514 a 1.3000209,1.3000209 0 0 1 1.684,1.981 l -7.659,6.514 a 1.29,1.29 0 0 1 -0.899,0.308 z m 17.87,32.089 a 1.297,1.297 0 0 1 -0.532,-0.02 l -9.416,-2.326 a 1.299,1.299 0 0 1 -0.95,-1.573 1.294,1.294 0 0 1 1.573,-0.95 l 9.416,2.326 a 1.299,1.299 0 0 1 -0.091,2.543 z"
           id="path31" />
      </g>
    </g>
  </g>
</svg>
