<?xml version="1.0" encoding="utf-8" standalone="no"?>
<!DOCTYPE svg PUBLIC "-//W3C//DTD SVG 1.1//EN"
  "http://www.w3.org/Graphics/SVG/1.1/DTD/svg11.dtd">
<!-- Created with matplotlib (https://matplotlib.org/) -->
<svg height="345.6pt" version="1.1" viewBox="0 0 460.8 345.6" width="460.8pt" xmlns="http://www.w3.org/2000/svg" xmlns:xlink="http://www.w3.org/1999/xlink">
 <defs>
  <style type="text/css">
*{stroke-linecap:butt;stroke-linejoin:round;}
  </style>
 </defs>
 <g id="figure_1">
  <g id="patch_1">
   <path d="M 0 345.6 
L 460.8 345.6 
L 460.8 0 
L 0 0 
z
" style="fill:#ffffff;"/>
  </g>
  <g id="axes_1">
   <g id="patch_2">
    <path d="M 57.6 307.584 
L 414.72 307.584 
L 414.72 41.472 
L 57.6 41.472 
z
" style="fill:#ffffff;"/>
   </g>
   <g id="PathCollection_1">
    <defs>
     <path d="M 0 3 
C 0.795609 3 1.55874 2.683901 2.12132 2.12132 
C 2.683901 1.55874 3 0.795609 3 0 
C 3 -0.795609 2.683901 -1.55874 2.12132 -2.12132 
C 1.55874 -2.683901 0.795609 -3 0 -3 
C -0.795609 -3 -1.55874 -2.683901 -2.12132 -2.12132 
C -2.683901 -1.55874 -3 -0.795609 -3 0 
C -3 0.795609 -2.683901 1.55874 -2.12132 2.12132 
C -1.55874 2.683901 -0.795609 3 0 3 
z
" id="C0_0_5630b65af4"/>
    </defs>
    <g clip-path="url(#p79894ea510)">
     <use style="fill:#440154;stroke:#440154;" x="398.059811" xlink:href="#C0_0_5630b65af4" y="268.423268"/>
    </g>
    <g clip-path="url(#p79894ea510)">
     <use style="fill:#440154;stroke:#440154;" x="391.430897" xlink:href="#C0_0_5630b65af4" y="279.164995"/>
    </g>
    <g clip-path="url(#p79894ea510)">
     <use style="fill:#440154;stroke:#440154;" x="395.03541" xlink:href="#C0_0_5630b65af4" y="266.181025"/>
    </g>
    <g clip-path="url(#p79894ea510)">
     <use style="fill:#440154;stroke:#440154;" x="375.483734" xlink:href="#C0_0_5630b65af4" y="279.580816"/>
    </g>
    <g clip-path="url(#p79894ea510)">
     <use style="fill:#440154;stroke:#440154;" x="375.483734" xlink:href="#C0_0_5630b65af4" y="279.580816"/>
    </g>
    <g clip-path="url(#p79894ea510)">
     <use style="fill:#440154;stroke:#440154;" x="393.947443" xlink:href="#C0_0_5630b65af4" y="282.048696"/>
    </g>
    <g clip-path="url(#p79894ea510)">
     <use style="fill:#440154;stroke:#440154;" x="380.18602" xlink:href="#C0_0_5630b65af4" y="294.955236"/>
    </g>
    <g clip-path="url(#p79894ea510)">
     <use style="fill:#440154;stroke:#440154;" x="395.03541" xlink:href="#C0_0_5630b65af4" y="266.181025"/>
    </g>
    <g clip-path="url(#p79894ea510)">
     <use style="fill:#440154;stroke:#440154;" x="383.825421" xlink:href="#C0_0_5630b65af4" y="273.462549"/>
    </g>
    <g clip-path="url(#p79894ea510)">
     <use style="fill:#440154;stroke:#440154;" x="388.406496" xlink:href="#C0_0_5630b65af4" y="276.922752"/>
    </g>
    <g clip-path="url(#p79894ea510)">
     <use style="fill:#440154;stroke:#440154;" x="374.645073" xlink:href="#C0_0_5630b65af4" y="289.829292"/>
    </g>
    <g clip-path="url(#p79894ea510)">
     <use style="fill:#3b528b;stroke:#3b528b;" x="270.913199" xlink:href="#C0_0_5630b65af4" y="67.150143"/>
    </g>
    <g clip-path="url(#p79894ea510)">
     <use style="fill:#3b528b;stroke:#3b528b;" x="256.686574" xlink:href="#C0_0_5630b65af4" y="70.55709"/>
    </g>
    <g clip-path="url(#p79894ea510)">
     <use style="fill:#3b528b;stroke:#3b528b;" x="284.906379" xlink:href="#C0_0_5630b65af4" y="69.395453"/>
    </g>
    <g clip-path="url(#p79894ea510)">
     <use style="fill:#3b528b;stroke:#3b528b;" x="266.42203" xlink:href="#C0_0_5630b65af4" y="112.16451"/>
    </g>
    <g clip-path="url(#p79894ea510)">
     <use style="fill:#3b528b;stroke:#3b528b;" x="273.016523" xlink:href="#C0_0_5630b65af4" y="54.100764"/>
    </g>
    <g clip-path="url(#p79894ea510)">
     <use style="fill:#3b528b;stroke:#3b528b;" x="270.913199" xlink:href="#C0_0_5630b65af4" y="67.150143"/>
    </g>
    <g clip-path="url(#p79894ea510)">
     <use style="fill:#3b528b;stroke:#3b528b;" x="266.022773" xlink:href="#C0_0_5630b65af4" y="67.159461"/>
    </g>
    <g clip-path="url(#p79894ea510)">
     <use style="fill:#3b528b;stroke:#3b528b;" x="270.913199" xlink:href="#C0_0_5630b65af4" y="67.150143"/>
    </g>
    <g clip-path="url(#p79894ea510)">
     <use style="fill:#3b528b;stroke:#3b528b;" x="266.022773" xlink:href="#C0_0_5630b65af4" y="67.159461"/>
    </g>
    <g clip-path="url(#p79894ea510)">
     <use style="fill:#3b528b;stroke:#3b528b;" x="272.111853" xlink:href="#C0_0_5630b65af4" y="102.537934"/>
    </g>
    <g clip-path="url(#p79894ea510)">
     <use style="fill:#3b528b;stroke:#3b528b;" x="266.022773" xlink:href="#C0_0_5630b65af4" y="67.159461"/>
    </g>
    <g clip-path="url(#p79894ea510)">
     <use style="fill:#21918c;stroke:#21918c;" x="147.83349" xlink:href="#C0_0_5630b65af4" y="216.254744"/>
    </g>
    <g clip-path="url(#p79894ea510)">
     <use style="fill:#21918c;stroke:#21918c;" x="162.060115" xlink:href="#C0_0_5630b65af4" y="212.847797"/>
    </g>
    <g clip-path="url(#p79894ea510)">
     <use style="fill:#21918c;stroke:#21918c;" x="145.32521" xlink:href="#C0_0_5630b65af4" y="216.945529"/>
    </g>
    <g clip-path="url(#p79894ea510)">
     <use style="fill:#21918c;stroke:#21918c;" x="146.163939" xlink:href="#C0_0_5630b65af4" y="216.71406"/>
    </g>
    <g clip-path="url(#p79894ea510)">
     <use style="fill:#5ec962;stroke:#5ec962;" x="102.99226" xlink:href="#C0_0_5630b65af4" y="240.665427"/>
    </g>
    <g clip-path="url(#p79894ea510)">
     <use style="fill:#5ec962;stroke:#5ec962;" x="105.199694" xlink:href="#C0_0_5630b65af4" y="236.796192"/>
    </g>
    <g clip-path="url(#p79894ea510)">
     <use style="fill:#5ec962;stroke:#5ec962;" x="102.99226" xlink:href="#C0_0_5630b65af4" y="240.665427"/>
    </g>
    <g clip-path="url(#p79894ea510)">
     <use style="fill:#5ec962;stroke:#5ec962;" x="92.484076" xlink:href="#C0_0_5630b65af4" y="223.865221"/>
    </g>
    <g clip-path="url(#p79894ea510)">
     <use style="fill:#5ec962;stroke:#5ec962;" x="111.828608" xlink:href="#C0_0_5630b65af4" y="226.054465"/>
    </g>
    <g clip-path="url(#p79894ea510)">
     <use style="fill:#5ec962;stroke:#5ec962;" x="105.199694" xlink:href="#C0_0_5630b65af4" y="236.796192"/>
    </g>
    <g clip-path="url(#p79894ea510)">
     <use style="fill:#5ec962;stroke:#5ec962;" x="133.955414" xlink:href="#C0_0_5630b65af4" y="233.262907"/>
    </g>
    <g clip-path="url(#p79894ea510)">
     <use style="fill:#5ec962;stroke:#5ec962;" x="105.199694" xlink:href="#C0_0_5630b65af4" y="236.796192"/>
    </g>
    <g clip-path="url(#p79894ea510)">
     <use style="fill:#5ec962;stroke:#5ec962;" x="122.624214" xlink:href="#C0_0_5630b65af4" y="228.630214"/>
    </g>
    <g clip-path="url(#p79894ea510)">
     <use style="fill:#5ec962;stroke:#5ec962;" x="92.484076" xlink:href="#C0_0_5630b65af4" y="223.865221"/>
    </g>
    <g clip-path="url(#p79894ea510)">
     <use style="fill:#fde725;stroke:#fde725;" x="74.260189" xlink:href="#C0_0_5630b65af4" y="257.669425"/>
    </g>
    <g clip-path="url(#p79894ea510)">
     <use style="fill:#fde725;stroke:#fde725;" x="84.768373" xlink:href="#C0_0_5630b65af4" y="274.469631"/>
    </g>
    <g clip-path="url(#p79894ea510)">
     <use style="fill:#fde725;stroke:#fde725;" x="87.208645" xlink:href="#C0_0_5630b65af4" y="293.719205"/>
    </g>
   </g>
   <g id="matplotlib.axis_1">
    <g id="xtick_1">
     <g id="line2d_1">
      <defs>
       <path d="M 0 0 
L 0 3.5 
" id="mbe3f6dbba0" style="stroke:#000000;stroke-width:0.8;"/>
      </defs>
      <g>
       <use style="stroke:#000000;stroke-width:0.8;" x="92.962111" xlink:href="#mbe3f6dbba0" y="307.584"/>
      </g>
     </g>
     <g id="text_1">
      <!-- −2 -->
      <defs>
       <path d="M 10.59375 35.5 
L 73.1875 35.5 
L 73.1875 27.203125 
L 10.59375 27.203125 
z
" id="DejaVuSans-8722"/>
       <path d="M 19.1875 8.296875 
L 53.609375 8.296875 
L 53.609375 0 
L 7.328125 0 
L 7.328125 8.296875 
Q 12.9375 14.109375 22.625 23.890625 
Q 32.328125 33.6875 34.8125 36.53125 
Q 39.546875 41.84375 41.421875 45.53125 
Q 43.3125 49.21875 43.3125 52.78125 
Q 43.3125 58.59375 39.234375 62.25 
Q 35.15625 65.921875 28.609375 65.921875 
Q 23.96875 65.921875 18.8125 64.3125 
Q 13.671875 62.703125 7.8125 59.421875 
L 7.8125 69.390625 
Q 13.765625 71.78125 18.9375 73 
Q 24.125 74.21875 28.421875 74.21875 
Q 39.75 74.21875 46.484375 68.546875 
Q 53.21875 62.890625 53.21875 53.421875 
Q 53.21875 48.921875 51.53125 44.890625 
Q 49.859375 40.875 45.40625 35.40625 
Q 44.1875 33.984375 37.640625 27.21875 
Q 31.109375 20.453125 19.1875 8.296875 
z
" id="DejaVuSans-50"/>
      </defs>
      <g transform="translate(85.591017 322.182437)scale(0.1 -0.1)">
       <use xlink:href="#DejaVuSans-8722"/>
       <use x="83.789062" xlink:href="#DejaVuSans-50"/>
      </g>
     </g>
    </g>
    <g id="xtick_2">
     <g id="line2d_2">
      <g>
       <use style="stroke:#000000;stroke-width:0.8;" x="163.635808" xlink:href="#mbe3f6dbba0" y="307.584"/>
      </g>
     </g>
     <g id="text_2">
      <!-- −1 -->
      <defs>
       <path d="M 12.40625 8.296875 
L 28.515625 8.296875 
L 28.515625 63.921875 
L 10.984375 60.40625 
L 10.984375 69.390625 
L 28.421875 72.90625 
L 38.28125 72.90625 
L 38.28125 8.296875 
L 54.390625 8.296875 
L 54.390625 0 
L 12.40625 0 
z
" id="DejaVuSans-49"/>
      </defs>
      <g transform="translate(156.264714 322.182437)scale(0.1 -0.1)">
       <use xlink:href="#DejaVuSans-8722"/>
       <use x="83.789062" xlink:href="#DejaVuSans-49"/>
      </g>
     </g>
    </g>
    <g id="xtick_3">
     <g id="line2d_3">
      <g>
       <use style="stroke:#000000;stroke-width:0.8;" x="234.309504" xlink:href="#mbe3f6dbba0" y="307.584"/>
      </g>
     </g>
     <g id="text_3">
      <!-- 0 -->
      <defs>
       <path d="M 31.78125 66.40625 
Q 24.171875 66.40625 20.328125 58.90625 
Q 16.5 51.421875 16.5 36.375 
Q 16.5 21.390625 20.328125 13.890625 
Q 24.171875 6.390625 31.78125 6.390625 
Q 39.453125 6.390625 43.28125 13.890625 
Q 47.125 21.390625 47.125 36.375 
Q 47.125 51.421875 43.28125 58.90625 
Q 39.453125 66.40625 31.78125 66.40625 
z
M 31.78125 74.21875 
Q 44.046875 74.21875 50.515625 64.515625 
Q 56.984375 54.828125 56.984375 36.375 
Q 56.984375 17.96875 50.515625 8.265625 
Q 44.046875 -1.421875 31.78125 -1.421875 
Q 19.53125 -1.421875 13.0625 8.265625 
Q 6.59375 17.96875 6.59375 36.375 
Q 6.59375 54.828125 13.0625 64.515625 
Q 19.53125 74.21875 31.78125 74.21875 
z
" id="DejaVuSans-48"/>
      </defs>
      <g transform="translate(231.128254 322.182437)scale(0.1 -0.1)">
       <use xlink:href="#DejaVuSans-48"/>
      </g>
     </g>
    </g>
    <g id="xtick_4">
     <g id="line2d_4">
      <g>
       <use style="stroke:#000000;stroke-width:0.8;" x="304.983201" xlink:href="#mbe3f6dbba0" y="307.584"/>
      </g>
     </g>
     <g id="text_4">
      <!-- 1 -->
      <g transform="translate(301.801951 322.182437)scale(0.1 -0.1)">
       <use xlink:href="#DejaVuSans-49"/>
      </g>
     </g>
    </g>
    <g id="xtick_5">
     <g id="line2d_5">
      <g>
       <use style="stroke:#000000;stroke-width:0.8;" x="375.656898" xlink:href="#mbe3f6dbba0" y="307.584"/>
      </g>
     </g>
     <g id="text_5">
      <!-- 2 -->
      <g transform="translate(372.475648 322.182437)scale(0.1 -0.1)">
       <use xlink:href="#DejaVuSans-50"/>
      </g>
     </g>
    </g>
   </g>
   <g id="matplotlib.axis_2">
    <g id="ytick_1">
     <g id="line2d_6">
      <defs>
       <path d="M 0 0 
L -3.5 0 
" id="m6b7851ec0a" style="stroke:#000000;stroke-width:0.8;"/>
      </defs>
      <g>
       <use style="stroke:#000000;stroke-width:0.8;" x="57.6" xlink:href="#m6b7851ec0a" y="300.60944"/>
      </g>
     </g>
     <g id="text_6">
      <!-- −1.5 -->
      <defs>
       <path d="M 10.6875 12.40625 
L 21 12.40625 
L 21 0 
L 10.6875 0 
z
" id="DejaVuSans-46"/>
       <path d="M 10.796875 72.90625 
L 49.515625 72.90625 
L 49.515625 64.59375 
L 19.828125 64.59375 
L 19.828125 46.734375 
Q 21.96875 47.46875 24.109375 47.828125 
Q 26.265625 48.1875 28.421875 48.1875 
Q 40.625 48.1875 47.75 41.5 
Q 54.890625 34.8125 54.890625 23.390625 
Q 54.890625 11.625 47.5625 5.09375 
Q 40.234375 -1.421875 26.90625 -1.421875 
Q 22.3125 -1.421875 17.546875 -0.640625 
Q 12.796875 0.140625 7.71875 1.703125 
L 7.71875 11.625 
Q 12.109375 9.234375 16.796875 8.0625 
Q 21.484375 6.890625 26.703125 6.890625 
Q 35.15625 6.890625 40.078125 11.328125 
Q 45.015625 15.765625 45.015625 23.390625 
Q 45.015625 31 40.078125 35.4375 
Q 35.15625 39.890625 26.703125 39.890625 
Q 22.75 39.890625 18.8125 39.015625 
Q 14.890625 38.140625 10.796875 36.28125 
z
" id="DejaVuSans-53"/>
      </defs>
      <g transform="translate(26.317187 304.408659)scale(0.1 -0.1)">
       <use xlink:href="#DejaVuSans-8722"/>
       <use x="83.789062" xlink:href="#DejaVuSans-49"/>
       <use x="147.412109" xlink:href="#DejaVuSans-46"/>
       <use x="179.199219" xlink:href="#DejaVuSans-53"/>
      </g>
     </g>
    </g>
    <g id="ytick_2">
     <g id="line2d_7">
      <g>
       <use style="stroke:#000000;stroke-width:0.8;" x="57.6" xlink:href="#m6b7851ec0a" y="267.79119"/>
      </g>
     </g>
     <g id="text_7">
      <!-- −1.0 -->
      <g transform="translate(26.317187 271.590409)scale(0.1 -0.1)">
       <use xlink:href="#DejaVuSans-8722"/>
       <use x="83.789062" xlink:href="#DejaVuSans-49"/>
       <use x="147.412109" xlink:href="#DejaVuSans-46"/>
       <use x="179.199219" xlink:href="#DejaVuSans-48"/>
      </g>
     </g>
    </g>
    <g id="ytick_3">
     <g id="line2d_8">
      <g>
       <use style="stroke:#000000;stroke-width:0.8;" x="57.6" xlink:href="#m6b7851ec0a" y="234.97294"/>
      </g>
     </g>
     <g id="text_8">
      <!-- −0.5 -->
      <g transform="translate(26.317187 238.772158)scale(0.1 -0.1)">
       <use xlink:href="#DejaVuSans-8722"/>
       <use x="83.789062" xlink:href="#DejaVuSans-48"/>
       <use x="147.412109" xlink:href="#DejaVuSans-46"/>
       <use x="179.199219" xlink:href="#DejaVuSans-53"/>
      </g>
     </g>
    </g>
    <g id="ytick_4">
     <g id="line2d_9">
      <g>
       <use style="stroke:#000000;stroke-width:0.8;" x="57.6" xlink:href="#m6b7851ec0a" y="202.154689"/>
      </g>
     </g>
     <g id="text_9">
      <!-- 0.0 -->
      <g transform="translate(34.696875 205.953908)scale(0.1 -0.1)">
       <use xlink:href="#DejaVuSans-48"/>
       <use x="63.623047" xlink:href="#DejaVuSans-46"/>
       <use x="95.410156" xlink:href="#DejaVuSans-48"/>
      </g>
     </g>
    </g>
    <g id="ytick_5">
     <g id="line2d_10">
      <g>
       <use style="stroke:#000000;stroke-width:0.8;" x="57.6" xlink:href="#m6b7851ec0a" y="169.336439"/>
      </g>
     </g>
     <g id="text_10">
      <!-- 0.5 -->
      <g transform="translate(34.696875 173.135658)scale(0.1 -0.1)">
       <use xlink:href="#DejaVuSans-48"/>
       <use x="63.623047" xlink:href="#DejaVuSans-46"/>
       <use x="95.410156" xlink:href="#DejaVuSans-53"/>
      </g>
     </g>
    </g>
    <g id="ytick_6">
     <g id="line2d_11">
      <g>
       <use style="stroke:#000000;stroke-width:0.8;" x="57.6" xlink:href="#m6b7851ec0a" y="136.518189"/>
      </g>
     </g>
     <g id="text_11">
      <!-- 1.0 -->
      <g transform="translate(34.696875 140.317408)scale(0.1 -0.1)">
       <use xlink:href="#DejaVuSans-49"/>
       <use x="63.623047" xlink:href="#DejaVuSans-46"/>
       <use x="95.410156" xlink:href="#DejaVuSans-48"/>
      </g>
     </g>
    </g>
    <g id="ytick_7">
     <g id="line2d_12">
      <g>
       <use style="stroke:#000000;stroke-width:0.8;" x="57.6" xlink:href="#m6b7851ec0a" y="103.699939"/>
      </g>
     </g>
     <g id="text_12">
      <!-- 1.5 -->
      <g transform="translate(34.696875 107.499157)scale(0.1 -0.1)">
       <use xlink:href="#DejaVuSans-49"/>
       <use x="63.623047" xlink:href="#DejaVuSans-46"/>
       <use x="95.410156" xlink:href="#DejaVuSans-53"/>
      </g>
     </g>
    </g>
    <g id="ytick_8">
     <g id="line2d_13">
      <g>
       <use style="stroke:#000000;stroke-width:0.8;" x="57.6" xlink:href="#m6b7851ec0a" y="70.881688"/>
      </g>
     </g>
     <g id="text_13">
      <!-- 2.0 -->
      <g transform="translate(34.696875 74.680907)scale(0.1 -0.1)">
       <use xlink:href="#DejaVuSans-50"/>
       <use x="63.623047" xlink:href="#DejaVuSans-46"/>
       <use x="95.410156" xlink:href="#DejaVuSans-48"/>
      </g>
     </g>
    </g>
   </g>
   <g id="patch_3">
    <path d="M 57.6 307.584 
L 57.6 41.472 
" style="fill:none;stroke:#000000;stroke-linecap:square;stroke-linejoin:miter;stroke-width:0.8;"/>
   </g>
   <g id="patch_4">
    <path d="M 414.72 307.584 
L 414.72 41.472 
" style="fill:none;stroke:#000000;stroke-linecap:square;stroke-linejoin:miter;stroke-width:0.8;"/>
   </g>
   <g id="patch_5">
    <path d="M 57.6 307.584 
L 414.72 307.584 
" style="fill:none;stroke:#000000;stroke-linecap:square;stroke-linejoin:miter;stroke-width:0.8;"/>
   </g>
   <g id="patch_6">
    <path d="M 57.6 41.472 
L 414.72 41.472 
" style="fill:none;stroke:#000000;stroke-linecap:square;stroke-linejoin:miter;stroke-width:0.8;"/>
   </g>
  </g>
 </g>
 <defs>
  <clipPath id="p79894ea510">
   <rect height="266.112" width="357.12" x="57.6" y="41.472"/>
  </clipPath>
 </defs>
</svg>
