<?xml version="1.0" encoding="utf-8" standalone="no"?>
<!DOCTYPE svg PUBLIC "-//W3C//DTD SVG 1.1//EN"
  "http://www.w3.org/Graphics/SVG/1.1/DTD/svg11.dtd">
<!-- Created with matplotlib (https://matplotlib.org/) -->
<svg height="345.6pt" version="1.1" viewBox="0 0 460.8 345.6" width="460.8pt" xmlns="http://www.w3.org/2000/svg" xmlns:xlink="http://www.w3.org/1999/xlink">
 <defs>
  <style type="text/css">
*{stroke-linecap:butt;stroke-linejoin:round;}
  </style>
 </defs>
 <g id="figure_1">
  <g id="patch_1">
   <path d="M 0 345.6 
L 460.8 345.6 
L 460.8 0 
L 0 0 
z
" style="fill:#ffffff;"/>
  </g>
  <g id="axes_1">
   <g id="patch_2">
    <path d="M 57.6 307.584 
L 414.72 307.584 
L 414.72 41.472 
L 57.6 41.472 
z
" style="fill:#ffffff;"/>
   </g>
   <g id="PathCollection_1">
    <defs>
     <path d="M 0 3 
C 0.795609 3 1.55874 2.683901 2.12132 2.12132 
C 2.683901 1.55874 3 0.795609 3 0 
C 3 -0.795609 2.683901 -1.55874 2.12132 -2.12132 
C 1.55874 -2.683901 0.795609 -3 0 -3 
C -0.795609 -3 -1.55874 -2.683901 -2.12132 -2.12132 
C -2.683901 -1.55874 -3 -0.795609 -3 0 
C -3 0.795609 -2.683901 1.55874 -2.12132 2.12132 
C -1.55874 2.683901 -0.795609 3 0 3 
z
" id="C0_0_3b0738978c"/>
    </defs>
    <g clip-path="url(#pff85bd1539)">
     <use style="fill:#440154;stroke:#440154;" x="181.550502" xlink:href="#C0_0_3b0738978c" y="210.419504"/>
    </g>
    <g clip-path="url(#pff85bd1539)">
     <use style="fill:#440154;stroke:#440154;" x="134.852331" xlink:href="#C0_0_3b0738978c" y="278.956876"/>
    </g>
    <g clip-path="url(#pff85bd1539)">
     <use style="fill:#440154;stroke:#440154;" x="112.43098" xlink:href="#C0_0_3b0738978c" y="257.702713"/>
    </g>
    <g clip-path="url(#pff85bd1539)">
     <use style="fill:#440154;stroke:#440154;" x="119.011929" xlink:href="#C0_0_3b0738978c" y="257.831528"/>
    </g>
    <g clip-path="url(#pff85bd1539)">
     <use style="fill:#440154;stroke:#440154;" x="135.525207" xlink:href="#C0_0_3b0738978c" y="267.389237"/>
    </g>
    <g clip-path="url(#pff85bd1539)">
     <use style="fill:#440154;stroke:#440154;" x="129.271464" xlink:href="#C0_0_3b0738978c" y="266.225351"/>
    </g>
    <g clip-path="url(#pff85bd1539)">
     <use style="fill:#440154;stroke:#440154;" x="216.847269" xlink:href="#C0_0_3b0738978c" y="168.60041"/>
    </g>
    <g clip-path="url(#pff85bd1539)">
     <use style="fill:#440154;stroke:#440154;" x="197.335506" xlink:href="#C0_0_3b0738978c" y="265.354091"/>
    </g>
    <g clip-path="url(#pff85bd1539)">
     <use style="fill:#440154;stroke:#440154;" x="146.173713" xlink:href="#C0_0_3b0738978c" y="273.352467"/>
    </g>
    <g clip-path="url(#pff85bd1539)">
     <use style="fill:#440154;stroke:#440154;" x="398.486384" xlink:href="#C0_0_3b0738978c" y="129.387669"/>
    </g>
    <g clip-path="url(#pff85bd1539)">
     <use style="fill:#440154;stroke:#440154;" x="128.431194" xlink:href="#C0_0_3b0738978c" y="269.790952"/>
    </g>
    <g clip-path="url(#pff85bd1539)">
     <use style="fill:#440154;stroke:#440154;" x="191.403704" xlink:href="#C0_0_3b0738978c" y="194.248446"/>
    </g>
    <g clip-path="url(#pff85bd1539)">
     <use style="fill:#440154;stroke:#440154;" x="166.090903" xlink:href="#C0_0_3b0738978c" y="176.478608"/>
    </g>
    <g clip-path="url(#pff85bd1539)">
     <use style="fill:#440154;stroke:#440154;" x="218.146812" xlink:href="#C0_0_3b0738978c" y="176.415132"/>
    </g>
    <g clip-path="url(#pff85bd1539)">
     <use style="fill:#440154;stroke:#440154;" x="135.164837" xlink:href="#C0_0_3b0738978c" y="249.834722"/>
    </g>
    <g clip-path="url(#pff85bd1539)">
     <use style="fill:#440154;stroke:#440154;" x="223.943509" xlink:href="#C0_0_3b0738978c" y="53.570608"/>
    </g>
    <g clip-path="url(#pff85bd1539)">
     <use style="fill:#440154;stroke:#440154;" x="172.786744" xlink:href="#C0_0_3b0738978c" y="268.494781"/>
    </g>
    <g clip-path="url(#pff85bd1539)">
     <use style="fill:#440154;stroke:#440154;" x="169.380587" xlink:href="#C0_0_3b0738978c" y="190.125272"/>
    </g>
    <g clip-path="url(#pff85bd1539)">
     <use style="fill:#440154;stroke:#440154;" x="163.86127" xlink:href="#C0_0_3b0738978c" y="287.158463"/>
    </g>
    <g clip-path="url(#pff85bd1539)">
     <use style="fill:#21918c;stroke:#21918c;" x="118.21486" xlink:href="#C0_0_3b0738978c" y="291.9961"/>
    </g>
    <g clip-path="url(#pff85bd1539)">
     <use style="fill:#21918c;stroke:#21918c;" x="120.359239" xlink:href="#C0_0_3b0738978c" y="295.485392"/>
    </g>
    <g clip-path="url(#pff85bd1539)">
     <use style="fill:#21918c;stroke:#21918c;" x="110.865036" xlink:href="#C0_0_3b0738978c" y="278.727023"/>
    </g>
    <g clip-path="url(#pff85bd1539)">
     <use style="fill:#21918c;stroke:#21918c;" x="115.262703" xlink:href="#C0_0_3b0738978c" y="289.156285"/>
    </g>
    <g clip-path="url(#pff85bd1539)">
     <use style="fill:#21918c;stroke:#21918c;" x="113.922004" xlink:href="#C0_0_3b0738978c" y="283.719265"/>
    </g>
    <g clip-path="url(#pff85bd1539)">
     <use style="fill:#21918c;stroke:#21918c;" x="119.199446" xlink:href="#C0_0_3b0738978c" y="295.338273"/>
    </g>
    <g clip-path="url(#pff85bd1539)">
     <use style="fill:#21918c;stroke:#21918c;" x="116.869071" xlink:href="#C0_0_3b0738978c" y="276.211179"/>
    </g>
    <g clip-path="url(#pff85bd1539)">
     <use style="fill:#21918c;stroke:#21918c;" x="113.684852" xlink:href="#C0_0_3b0738978c" y="285.977232"/>
    </g>
    <g clip-path="url(#pff85bd1539)">
     <use style="fill:#21918c;stroke:#21918c;" x="116.103618" xlink:href="#C0_0_3b0738978c" y="292.45799"/>
    </g>
    <g clip-path="url(#pff85bd1539)">
     <use style="fill:#21918c;stroke:#21918c;" x="117.73188" xlink:href="#C0_0_3b0738978c" y="294.406276"/>
    </g>
    <g clip-path="url(#pff85bd1539)">
     <use style="fill:#21918c;stroke:#21918c;" x="114.504621" xlink:href="#C0_0_3b0738978c" y="287.341126"/>
    </g>
    <g clip-path="url(#pff85bd1539)">
     <use style="fill:#21918c;stroke:#21918c;" x="123.123257" xlink:href="#C0_0_3b0738978c" y="287.0421"/>
    </g>
    <g clip-path="url(#pff85bd1539)">
     <use style="fill:#21918c;stroke:#21918c;" x="122.580828" xlink:href="#C0_0_3b0738978c" y="242.60441"/>
    </g>
    <g clip-path="url(#pff85bd1539)">
     <use style="fill:#21918c;stroke:#21918c;" x="116.0597" xlink:href="#C0_0_3b0738978c" y="274.619017"/>
    </g>
    <g clip-path="url(#pff85bd1539)">
     <use style="fill:#21918c;stroke:#21918c;" x="119.5792" xlink:href="#C0_0_3b0738978c" y="287.613384"/>
    </g>
    <g clip-path="url(#pff85bd1539)">
     <use style="fill:#21918c;stroke:#21918c;" x="115.440337" xlink:href="#C0_0_3b0738978c" y="280.958775"/>
    </g>
    <g clip-path="url(#pff85bd1539)">
     <use style="fill:#21918c;stroke:#21918c;" x="116.439988" xlink:href="#C0_0_3b0738978c" y="294.367249"/>
    </g>
    <g clip-path="url(#pff85bd1539)">
     <use style="fill:#21918c;stroke:#21918c;" x="119.436968" xlink:href="#C0_0_3b0738978c" y="285.359724"/>
    </g>
    <g clip-path="url(#pff85bd1539)">
     <use style="fill:#21918c;stroke:#21918c;" x="114.634758" xlink:href="#C0_0_3b0738978c" y="290.008653"/>
    </g>
    <g clip-path="url(#pff85bd1539)">
     <use style="fill:#fde725;stroke:#fde725;" x="87.32563" xlink:href="#C0_0_3b0738978c" y="148.915969"/>
    </g>
    <g clip-path="url(#pff85bd1539)">
     <use style="fill:#fde725;stroke:#fde725;" x="79.939039" xlink:href="#C0_0_3b0738978c" y="132.01086"/>
    </g>
    <g clip-path="url(#pff85bd1539)">
     <use style="fill:#fde725;stroke:#fde725;" x="78.491138" xlink:href="#C0_0_3b0738978c" y="137.675269"/>
    </g>
    <g clip-path="url(#pff85bd1539)">
     <use style="fill:#fde725;stroke:#fde725;" x="95.490529" xlink:href="#C0_0_3b0738978c" y="141.94911"/>
    </g>
    <g clip-path="url(#pff85bd1539)">
     <use style="fill:#fde725;stroke:#fde725;" x="87.915608" xlink:href="#C0_0_3b0738978c" y="126.335722"/>
    </g>
    <g clip-path="url(#pff85bd1539)">
     <use style="fill:#fde725;stroke:#fde725;" x="91.382137" xlink:href="#C0_0_3b0738978c" y="142.653604"/>
    </g>
    <g clip-path="url(#pff85bd1539)">
     <use style="fill:#fde725;stroke:#fde725;" x="77.214373" xlink:href="#C0_0_3b0738978c" y="126.565799"/>
    </g>
    <g clip-path="url(#pff85bd1539)">
     <use style="fill:#fde725;stroke:#fde725;" x="103.076868" xlink:href="#C0_0_3b0738978c" y="142.49427"/>
    </g>
    <g clip-path="url(#pff85bd1539)">
     <use style="fill:#fde725;stroke:#fde725;" x="79.296762" xlink:href="#C0_0_3b0738978c" y="133.596696"/>
    </g>
    <g clip-path="url(#pff85bd1539)">
     <use style="fill:#fde725;stroke:#fde725;" x="111.841108" xlink:href="#C0_0_3b0738978c" y="154.937045"/>
    </g>
    <g clip-path="url(#pff85bd1539)">
     <use style="fill:#fde725;stroke:#fde725;" x="81.468633" xlink:href="#C0_0_3b0738978c" y="142.780241"/>
    </g>
    <g clip-path="url(#pff85bd1539)">
     <use style="fill:#fde725;stroke:#fde725;" x="73.833616" xlink:href="#C0_0_3b0738978c" y="133.035533"/>
    </g>
    <g clip-path="url(#pff85bd1539)">
     <use style="fill:#fde725;stroke:#fde725;" x="81.143663" xlink:href="#C0_0_3b0738978c" y="129.735371"/>
    </g>
    <g clip-path="url(#pff85bd1539)">
     <use style="fill:#fde725;stroke:#fde725;" x="114.020553" xlink:href="#C0_0_3b0738978c" y="117.064905"/>
    </g>
    <g clip-path="url(#pff85bd1539)">
     <use style="fill:#fde725;stroke:#fde725;" x="78.676414" xlink:href="#C0_0_3b0738978c" y="125.223967"/>
    </g>
    <g clip-path="url(#pff85bd1539)">
     <use style="fill:#fde725;stroke:#fde725;" x="76.633743" xlink:href="#C0_0_3b0738978c" y="133.088221"/>
    </g>
    <g clip-path="url(#pff85bd1539)">
     <use style="fill:#fde725;stroke:#fde725;" x="84.661866" xlink:href="#C0_0_3b0738978c" y="140.843289"/>
    </g>
   </g>
   <g id="matplotlib.axis_1">
    <g id="xtick_1">
     <g id="line2d_1">
      <defs>
       <path d="M 0 0 
L 0 3.5 
" id="m0a28287232" style="stroke:#000000;stroke-width:0.8;"/>
      </defs>
      <g>
       <use style="stroke:#000000;stroke-width:0.8;" x="128.129434" xlink:href="#m0a28287232" y="307.584"/>
      </g>
     </g>
     <g id="text_1">
      <!-- 0 -->
      <defs>
       <path d="M 31.78125 66.40625 
Q 24.171875 66.40625 20.328125 58.90625 
Q 16.5 51.421875 16.5 36.375 
Q 16.5 21.390625 20.328125 13.890625 
Q 24.171875 6.390625 31.78125 6.390625 
Q 39.453125 6.390625 43.28125 13.890625 
Q 47.125 21.390625 47.125 36.375 
Q 47.125 51.421875 43.28125 58.90625 
Q 39.453125 66.40625 31.78125 66.40625 
z
M 31.78125 74.21875 
Q 44.046875 74.21875 50.515625 64.515625 
Q 56.984375 54.828125 56.984375 36.375 
Q 56.984375 17.96875 50.515625 8.265625 
Q 44.046875 -1.421875 31.78125 -1.421875 
Q 19.53125 -1.421875 13.0625 8.265625 
Q 6.59375 17.96875 6.59375 36.375 
Q 6.59375 54.828125 13.0625 64.515625 
Q 19.53125 74.21875 31.78125 74.21875 
z
" id="DejaVuSans-48"/>
      </defs>
      <g transform="translate(124.948184 322.182437)scale(0.1 -0.1)">
       <use xlink:href="#DejaVuSans-48"/>
      </g>
     </g>
    </g>
    <g id="xtick_2">
     <g id="line2d_2">
      <g>
       <use style="stroke:#000000;stroke-width:0.8;" x="201.595647" xlink:href="#m0a28287232" y="307.584"/>
      </g>
     </g>
     <g id="text_2">
      <!-- 500 -->
      <defs>
       <path d="M 10.796875 72.90625 
L 49.515625 72.90625 
L 49.515625 64.59375 
L 19.828125 64.59375 
L 19.828125 46.734375 
Q 21.96875 47.46875 24.109375 47.828125 
Q 26.265625 48.1875 28.421875 48.1875 
Q 40.625 48.1875 47.75 41.5 
Q 54.890625 34.8125 54.890625 23.390625 
Q 54.890625 11.625 47.5625 5.09375 
Q 40.234375 -1.421875 26.90625 -1.421875 
Q 22.3125 -1.421875 17.546875 -0.640625 
Q 12.796875 0.140625 7.71875 1.703125 
L 7.71875 11.625 
Q 12.109375 9.234375 16.796875 8.0625 
Q 21.484375 6.890625 26.703125 6.890625 
Q 35.15625 6.890625 40.078125 11.328125 
Q 45.015625 15.765625 45.015625 23.390625 
Q 45.015625 31 40.078125 35.4375 
Q 35.15625 39.890625 26.703125 39.890625 
Q 22.75 39.890625 18.8125 39.015625 
Q 14.890625 38.140625 10.796875 36.28125 
z
" id="DejaVuSans-53"/>
      </defs>
      <g transform="translate(192.051897 322.182437)scale(0.1 -0.1)">
       <use xlink:href="#DejaVuSans-53"/>
       <use x="63.623047" xlink:href="#DejaVuSans-48"/>
       <use x="127.246094" xlink:href="#DejaVuSans-48"/>
      </g>
     </g>
    </g>
    <g id="xtick_3">
     <g id="line2d_3">
      <g>
       <use style="stroke:#000000;stroke-width:0.8;" x="275.061861" xlink:href="#m0a28287232" y="307.584"/>
      </g>
     </g>
     <g id="text_3">
      <!-- 1000 -->
      <defs>
       <path d="M 12.40625 8.296875 
L 28.515625 8.296875 
L 28.515625 63.921875 
L 10.984375 60.40625 
L 10.984375 69.390625 
L 28.421875 72.90625 
L 38.28125 72.90625 
L 38.28125 8.296875 
L 54.390625 8.296875 
L 54.390625 0 
L 12.40625 0 
z
" id="DejaVuSans-49"/>
      </defs>
      <g transform="translate(262.336861 322.182437)scale(0.1 -0.1)">
       <use xlink:href="#DejaVuSans-49"/>
       <use x="63.623047" xlink:href="#DejaVuSans-48"/>
       <use x="127.246094" xlink:href="#DejaVuSans-48"/>
       <use x="190.869141" xlink:href="#DejaVuSans-48"/>
      </g>
     </g>
    </g>
    <g id="xtick_4">
     <g id="line2d_4">
      <g>
       <use style="stroke:#000000;stroke-width:0.8;" x="348.528074" xlink:href="#m0a28287232" y="307.584"/>
      </g>
     </g>
     <g id="text_4">
      <!-- 1500 -->
      <g transform="translate(335.803074 322.182437)scale(0.1 -0.1)">
       <use xlink:href="#DejaVuSans-49"/>
       <use x="63.623047" xlink:href="#DejaVuSans-53"/>
       <use x="127.246094" xlink:href="#DejaVuSans-48"/>
       <use x="190.869141" xlink:href="#DejaVuSans-48"/>
      </g>
     </g>
    </g>
   </g>
   <g id="matplotlib.axis_2">
    <g id="ytick_1">
     <g id="line2d_5">
      <defs>
       <path d="M 0 0 
L -3.5 0 
" id="m2205c1ef3d" style="stroke:#000000;stroke-width:0.8;"/>
      </defs>
      <g>
       <use style="stroke:#000000;stroke-width:0.8;" x="57.6" xlink:href="#m2205c1ef3d" y="281.789091"/>
      </g>
     </g>
     <g id="text_5">
      <!-- −200 -->
      <defs>
       <path d="M 10.59375 35.5 
L 73.1875 35.5 
L 73.1875 27.203125 
L 10.59375 27.203125 
z
" id="DejaVuSans-8722"/>
       <path d="M 19.1875 8.296875 
L 53.609375 8.296875 
L 53.609375 0 
L 7.328125 0 
L 7.328125 8.296875 
Q 12.9375 14.109375 22.625 23.890625 
Q 32.328125 33.6875 34.8125 36.53125 
Q 39.546875 41.84375 41.421875 45.53125 
Q 43.3125 49.21875 43.3125 52.78125 
Q 43.3125 58.59375 39.234375 62.25 
Q 35.15625 65.921875 28.609375 65.921875 
Q 23.96875 65.921875 18.8125 64.3125 
Q 13.671875 62.703125 7.8125 59.421875 
L 7.8125 69.390625 
Q 13.765625 71.78125 18.9375 73 
Q 24.125 74.21875 28.421875 74.21875 
Q 39.75 74.21875 46.484375 68.546875 
Q 53.21875 62.890625 53.21875 53.421875 
Q 53.21875 48.921875 51.53125 44.890625 
Q 49.859375 40.875 45.40625 35.40625 
Q 44.1875 33.984375 37.640625 27.21875 
Q 31.109375 20.453125 19.1875 8.296875 
z
" id="DejaVuSans-50"/>
      </defs>
      <g transform="translate(23.132812 285.58831)scale(0.1 -0.1)">
       <use xlink:href="#DejaVuSans-8722"/>
       <use x="83.789062" xlink:href="#DejaVuSans-50"/>
       <use x="147.412109" xlink:href="#DejaVuSans-48"/>
       <use x="211.035156" xlink:href="#DejaVuSans-48"/>
      </g>
     </g>
    </g>
    <g id="ytick_2">
     <g id="line2d_6">
      <g>
       <use style="stroke:#000000;stroke-width:0.8;" x="57.6" xlink:href="#m2205c1ef3d" y="249.654838"/>
      </g>
     </g>
     <g id="text_6">
      <!-- −100 -->
      <g transform="translate(23.132812 253.454057)scale(0.1 -0.1)">
       <use xlink:href="#DejaVuSans-8722"/>
       <use x="83.789062" xlink:href="#DejaVuSans-49"/>
       <use x="147.412109" xlink:href="#DejaVuSans-48"/>
       <use x="211.035156" xlink:href="#DejaVuSans-48"/>
      </g>
     </g>
    </g>
    <g id="ytick_3">
     <g id="line2d_7">
      <g>
       <use style="stroke:#000000;stroke-width:0.8;" x="57.6" xlink:href="#m2205c1ef3d" y="217.520585"/>
      </g>
     </g>
     <g id="text_7">
      <!-- 0 -->
      <g transform="translate(44.2375 221.319803)scale(0.1 -0.1)">
       <use xlink:href="#DejaVuSans-48"/>
      </g>
     </g>
    </g>
    <g id="ytick_4">
     <g id="line2d_8">
      <g>
       <use style="stroke:#000000;stroke-width:0.8;" x="57.6" xlink:href="#m2205c1ef3d" y="185.386331"/>
      </g>
     </g>
     <g id="text_8">
      <!-- 100 -->
      <g transform="translate(31.5125 189.18555)scale(0.1 -0.1)">
       <use xlink:href="#DejaVuSans-49"/>
       <use x="63.623047" xlink:href="#DejaVuSans-48"/>
       <use x="127.246094" xlink:href="#DejaVuSans-48"/>
      </g>
     </g>
    </g>
    <g id="ytick_5">
     <g id="line2d_9">
      <g>
       <use style="stroke:#000000;stroke-width:0.8;" x="57.6" xlink:href="#m2205c1ef3d" y="153.252078"/>
      </g>
     </g>
     <g id="text_9">
      <!-- 200 -->
      <g transform="translate(31.5125 157.051297)scale(0.1 -0.1)">
       <use xlink:href="#DejaVuSans-50"/>
       <use x="63.623047" xlink:href="#DejaVuSans-48"/>
       <use x="127.246094" xlink:href="#DejaVuSans-48"/>
      </g>
     </g>
    </g>
    <g id="ytick_6">
     <g id="line2d_10">
      <g>
       <use style="stroke:#000000;stroke-width:0.8;" x="57.6" xlink:href="#m2205c1ef3d" y="121.117825"/>
      </g>
     </g>
     <g id="text_10">
      <!-- 300 -->
      <defs>
       <path d="M 40.578125 39.3125 
Q 47.65625 37.796875 51.625 33 
Q 55.609375 28.21875 55.609375 21.1875 
Q 55.609375 10.40625 48.1875 4.484375 
Q 40.765625 -1.421875 27.09375 -1.421875 
Q 22.515625 -1.421875 17.65625 -0.515625 
Q 12.796875 0.390625 7.625 2.203125 
L 7.625 11.71875 
Q 11.71875 9.328125 16.59375 8.109375 
Q 21.484375 6.890625 26.8125 6.890625 
Q 36.078125 6.890625 40.9375 10.546875 
Q 45.796875 14.203125 45.796875 21.1875 
Q 45.796875 27.640625 41.28125 31.265625 
Q 36.765625 34.90625 28.71875 34.90625 
L 20.21875 34.90625 
L 20.21875 43.015625 
L 29.109375 43.015625 
Q 36.375 43.015625 40.234375 45.921875 
Q 44.09375 48.828125 44.09375 54.296875 
Q 44.09375 59.90625 40.109375 62.90625 
Q 36.140625 65.921875 28.71875 65.921875 
Q 24.65625 65.921875 20.015625 65.03125 
Q 15.375 64.15625 9.8125 62.3125 
L 9.8125 71.09375 
Q 15.4375 72.65625 20.34375 73.4375 
Q 25.25 74.21875 29.59375 74.21875 
Q 40.828125 74.21875 47.359375 69.109375 
Q 53.90625 64.015625 53.90625 55.328125 
Q 53.90625 49.265625 50.4375 45.09375 
Q 46.96875 40.921875 40.578125 39.3125 
z
" id="DejaVuSans-51"/>
      </defs>
      <g transform="translate(31.5125 124.917044)scale(0.1 -0.1)">
       <use xlink:href="#DejaVuSans-51"/>
       <use x="63.623047" xlink:href="#DejaVuSans-48"/>
       <use x="127.246094" xlink:href="#DejaVuSans-48"/>
      </g>
     </g>
    </g>
    <g id="ytick_7">
     <g id="line2d_11">
      <g>
       <use style="stroke:#000000;stroke-width:0.8;" x="57.6" xlink:href="#m2205c1ef3d" y="88.983572"/>
      </g>
     </g>
     <g id="text_11">
      <!-- 400 -->
      <defs>
       <path d="M 37.796875 64.3125 
L 12.890625 25.390625 
L 37.796875 25.390625 
z
M 35.203125 72.90625 
L 47.609375 72.90625 
L 47.609375 25.390625 
L 58.015625 25.390625 
L 58.015625 17.1875 
L 47.609375 17.1875 
L 47.609375 0 
L 37.796875 0 
L 37.796875 17.1875 
L 4.890625 17.1875 
L 4.890625 26.703125 
z
" id="DejaVuSans-52"/>
      </defs>
      <g transform="translate(31.5125 92.78279)scale(0.1 -0.1)">
       <use xlink:href="#DejaVuSans-52"/>
       <use x="63.623047" xlink:href="#DejaVuSans-48"/>
       <use x="127.246094" xlink:href="#DejaVuSans-48"/>
      </g>
     </g>
    </g>
    <g id="ytick_8">
     <g id="line2d_12">
      <g>
       <use style="stroke:#000000;stroke-width:0.8;" x="57.6" xlink:href="#m2205c1ef3d" y="56.849318"/>
      </g>
     </g>
     <g id="text_12">
      <!-- 500 -->
      <g transform="translate(31.5125 60.648537)scale(0.1 -0.1)">
       <use xlink:href="#DejaVuSans-53"/>
       <use x="63.623047" xlink:href="#DejaVuSans-48"/>
       <use x="127.246094" xlink:href="#DejaVuSans-48"/>
      </g>
     </g>
    </g>
   </g>
   <g id="patch_3">
    <path d="M 57.6 307.584 
L 57.6 41.472 
" style="fill:none;stroke:#000000;stroke-linecap:square;stroke-linejoin:miter;stroke-width:0.8;"/>
   </g>
   <g id="patch_4">
    <path d="M 414.72 307.584 
L 414.72 41.472 
" style="fill:none;stroke:#000000;stroke-linecap:square;stroke-linejoin:miter;stroke-width:0.8;"/>
   </g>
   <g id="patch_5">
    <path d="M 57.6 307.584 
L 414.72 307.584 
" style="fill:none;stroke:#000000;stroke-linecap:square;stroke-linejoin:miter;stroke-width:0.8;"/>
   </g>
   <g id="patch_6">
    <path d="M 57.6 41.472 
L 414.72 41.472 
" style="fill:none;stroke:#000000;stroke-linecap:square;stroke-linejoin:miter;stroke-width:0.8;"/>
   </g>
  </g>
 </g>
 <defs>
  <clipPath id="pff85bd1539">
   <rect height="266.112" width="357.12" x="57.6" y="41.472"/>
  </clipPath>
 </defs>
</svg>
