<?xml version="1.0" encoding="utf-8" standalone="no"?>
<!DOCTYPE svg PUBLIC "-//W3C//DTD SVG 1.1//EN"
  "http://www.w3.org/Graphics/SVG/1.1/DTD/svg11.dtd">
<!-- Created with matplotlib (https://matplotlib.org/) -->
<svg height="345.6pt" version="1.1" viewBox="0 0 460.8 345.6" width="460.8pt" xmlns="http://www.w3.org/2000/svg" xmlns:xlink="http://www.w3.org/1999/xlink">
 <defs>
  <style type="text/css">
*{stroke-linecap:butt;stroke-linejoin:round;}
  </style>
 </defs>
 <g id="figure_1">
  <g id="patch_1">
   <path d="M 0 345.6 
L 460.8 345.6 
L 460.8 0 
L 0 0 
z
" style="fill:#ffffff;"/>
  </g>
  <g id="axes_1">
   <g id="patch_2">
    <path d="M 57.6 307.584 
L 414.72 307.584 
L 414.72 41.472 
L 57.6 41.472 
z
" style="fill:#ffffff;"/>
   </g>
   <g id="PathCollection_1">
    <defs>
     <path d="M 0 3 
C 0.795609 3 1.55874 2.683901 2.12132 2.12132 
C 2.683901 1.55874 3 0.795609 3 0 
C 3 -0.795609 2.683901 -1.55874 2.12132 -2.12132 
C 1.55874 -2.683901 0.795609 -3 0 -3 
C -0.795609 -3 -1.55874 -2.683901 -2.12132 -2.12132 
C -2.683901 -1.55874 -3 -0.795609 -3 0 
C -3 0.795609 -2.683901 1.55874 -2.12132 2.12132 
C -1.55874 2.683901 -0.795609 3 0 3 
z
" id="C0_0_97e01ffdbf"/>
    </defs>
    <g clip-path="url(#p76b2a742b5)">
     <use style="fill:#440154;stroke:#440154;" x="73.842174" xlink:href="#C0_0_97e01ffdbf" y="102.304343"/>
    </g>
    <g clip-path="url(#p76b2a742b5)">
     <use style="fill:#440154;stroke:#440154;" x="130.27437" xlink:href="#C0_0_97e01ffdbf" y="82.842414"/>
    </g>
    <g clip-path="url(#p76b2a742b5)">
     <use style="fill:#440154;stroke:#440154;" x="129.418007" xlink:href="#C0_0_97e01ffdbf" y="82.409877"/>
    </g>
    <g clip-path="url(#p76b2a742b5)">
     <use style="fill:#440154;stroke:#440154;" x="75.754113" xlink:href="#C0_0_97e01ffdbf" y="103.357039"/>
    </g>
    <g clip-path="url(#p76b2a742b5)">
     <use style="fill:#440154;stroke:#440154;" x="127.227267" xlink:href="#C0_0_97e01ffdbf" y="54.813209"/>
    </g>
    <g clip-path="url(#p76b2a742b5)">
     <use style="fill:#440154;stroke:#440154;" x="128.373742" xlink:href="#C0_0_97e01ffdbf" y="55.467116"/>
    </g>
    <g clip-path="url(#p76b2a742b5)">
     <use style="fill:#440154;stroke:#440154;" x="126.815278" xlink:href="#C0_0_97e01ffdbf" y="54.699563"/>
    </g>
    <g clip-path="url(#p76b2a742b5)">
     <use style="fill:#440154;stroke:#440154;" x="80.374249" xlink:href="#C0_0_97e01ffdbf" y="133.591231"/>
    </g>
    <g clip-path="url(#p76b2a742b5)">
     <use style="fill:#440154;stroke:#440154;" x="136.563873" xlink:href="#C0_0_97e01ffdbf" y="186.698409"/>
    </g>
    <g clip-path="url(#p76b2a742b5)">
     <use style="fill:#440154;stroke:#440154;" x="190.198113" xlink:href="#C0_0_97e01ffdbf" y="135.059165"/>
    </g>
    <g clip-path="url(#p76b2a742b5)">
     <use style="fill:#440154;stroke:#440154;" x="246.387738" xlink:href="#C0_0_97e01ffdbf" y="188.166344"/>
    </g>
    <g clip-path="url(#p76b2a742b5)">
     <use style="fill:#440154;stroke:#440154;" x="126.325776" xlink:href="#C0_0_97e01ffdbf" y="53.577881"/>
    </g>
    <g clip-path="url(#p76b2a742b5)">
     <use style="fill:#440154;stroke:#440154;" x="135.88004" xlink:href="#C0_0_97e01ffdbf" y="87.829888"/>
    </g>
    <g clip-path="url(#p76b2a742b5)">
     <use style="fill:#440154;stroke:#440154;" x="131.638226" xlink:href="#C0_0_97e01ffdbf" y="83.877135"/>
    </g>
    <g clip-path="url(#p76b2a742b5)">
     <use style="fill:#440154;stroke:#440154;" x="80.625599" xlink:href="#C0_0_97e01ffdbf" y="131.392753"/>
    </g>
    <g clip-path="url(#p76b2a742b5)">
     <use style="fill:#440154;stroke:#440154;" x="78.279316" xlink:href="#C0_0_97e01ffdbf" y="130.071602"/>
    </g>
    <g clip-path="url(#p76b2a742b5)">
     <use style="fill:#440154;stroke:#440154;" x="187.511339" xlink:href="#C0_0_97e01ffdbf" y="133.830897"/>
    </g>
    <g clip-path="url(#p76b2a742b5)">
     <use style="fill:#440154;stroke:#440154;" x="82.700364" xlink:href="#C0_0_97e01ffdbf" y="137.010556"/>
    </g>
    <g clip-path="url(#p76b2a742b5)">
     <use style="fill:#440154;stroke:#440154;" x="135.023678" xlink:href="#C0_0_97e01ffdbf" y="87.397351"/>
    </g>
    <g clip-path="url(#p76b2a742b5)">
     <use style="fill:#440154;stroke:#440154;" x="79.010392" xlink:href="#C0_0_97e01ffdbf" y="132.556511"/>
    </g>
    <g clip-path="url(#p76b2a742b5)">
     <use style="fill:#21918c;stroke:#21918c;" x="319.245948" xlink:href="#C0_0_97e01ffdbf" y="171.56498"/>
    </g>
    <g clip-path="url(#p76b2a742b5)">
     <use style="fill:#21918c;stroke:#21918c;" x="391.597946" xlink:href="#C0_0_97e01ffdbf" y="156.541972"/>
    </g>
    <g clip-path="url(#p76b2a742b5)">
     <use style="fill:#21918c;stroke:#21918c;" x="387.999543" xlink:href="#C0_0_97e01ffdbf" y="157.302144"/>
    </g>
    <g clip-path="url(#p76b2a742b5)">
     <use style="fill:#21918c;stroke:#21918c;" x="390.424901" xlink:href="#C0_0_97e01ffdbf" y="156.610768"/>
    </g>
    <g clip-path="url(#p76b2a742b5)">
     <use style="fill:#21918c;stroke:#21918c;" x="387.76078" xlink:href="#C0_0_97e01ffdbf" y="125.253327"/>
    </g>
    <g clip-path="url(#p76b2a742b5)">
     <use style="fill:#21918c;stroke:#21918c;" x="388.859747" xlink:href="#C0_0_97e01ffdbf" y="157.120127"/>
    </g>
    <g clip-path="url(#p76b2a742b5)">
     <use style="fill:#21918c;stroke:#21918c;" x="391.91402" xlink:href="#C0_0_97e01ffdbf" y="156.074919"/>
    </g>
    <g clip-path="url(#p76b2a742b5)">
     <use style="fill:#21918c;stroke:#21918c;" x="396.211539" xlink:href="#C0_0_97e01ffdbf" y="155.430976"/>
    </g>
    <g clip-path="url(#p76b2a742b5)">
     <use style="fill:#21918c;stroke:#21918c;" x="332.185406" xlink:href="#C0_0_97e01ffdbf" y="169.138105"/>
    </g>
    <g clip-path="url(#p76b2a742b5)">
     <use style="fill:#21918c;stroke:#21918c;" x="327.259555" xlink:href="#C0_0_97e01ffdbf" y="170.091522"/>
    </g>
    <g clip-path="url(#p76b2a742b5)">
     <use style="fill:#21918c;stroke:#21918c;" x="393.669662" xlink:href="#C0_0_97e01ffdbf" y="156.102981"/>
    </g>
    <g clip-path="url(#p76b2a742b5)">
     <use style="fill:#21918c;stroke:#21918c;" x="319.279541" xlink:href="#C0_0_97e01ffdbf" y="139.636502"/>
    </g>
    <g clip-path="url(#p76b2a742b5)">
     <use style="fill:#21918c;stroke:#21918c;" x="394.728253" xlink:href="#C0_0_97e01ffdbf" y="155.523254"/>
    </g>
    <g clip-path="url(#p76b2a742b5)">
     <use style="fill:#21918c;stroke:#21918c;" x="392.692355" xlink:href="#C0_0_97e01ffdbf" y="156.309983"/>
    </g>
    <g clip-path="url(#p76b2a742b5)">
     <use style="fill:#21918c;stroke:#21918c;" x="384.864095" xlink:href="#C0_0_97e01ffdbf" y="126.26643"/>
    </g>
    <g clip-path="url(#p76b2a742b5)">
     <use style="fill:#21918c;stroke:#21918c;" x="334.290992" xlink:href="#C0_0_97e01ffdbf" y="175.061833"/>
    </g>
    <g clip-path="url(#p76b2a742b5)">
     <use style="fill:#21918c;stroke:#21918c;" x="397.582972" xlink:href="#C0_0_97e01ffdbf" y="154.96447"/>
    </g>
    <g clip-path="url(#p76b2a742b5)">
     <use style="fill:#21918c;stroke:#21918c;" x="327.612614" xlink:href="#C0_0_97e01ffdbf" y="169.883494"/>
    </g>
    <g clip-path="url(#p76b2a742b5)">
     <use style="fill:#21918c;stroke:#21918c;" x="398.477826" xlink:href="#C0_0_97e01ffdbf" y="155.218906"/>
    </g>
    <g clip-path="url(#p76b2a742b5)">
     <use style="fill:#21918c;stroke:#21918c;" x="394.955142" xlink:href="#C0_0_97e01ffdbf" y="156.364056"/>
    </g>
    <g clip-path="url(#p76b2a742b5)">
     <use style="fill:#fde725;stroke:#fde725;" x="188.650783" xlink:href="#C0_0_97e01ffdbf" y="284.207766"/>
    </g>
    <g clip-path="url(#p76b2a742b5)">
     <use style="fill:#fde725;stroke:#fde725;" x="181.778748" xlink:href="#C0_0_97e01ffdbf" y="289.826769"/>
    </g>
    <g clip-path="url(#p76b2a742b5)">
     <use style="fill:#fde725;stroke:#fde725;" x="188.400856" xlink:href="#C0_0_97e01ffdbf" y="283.811263"/>
    </g>
    <g clip-path="url(#p76b2a742b5)">
     <use style="fill:#fde725;stroke:#fde725;" x="188.73936" xlink:href="#C0_0_97e01ffdbf" y="283.068045"/>
    </g>
    <g clip-path="url(#p76b2a742b5)">
     <use style="fill:#fde725;stroke:#fde725;" x="186.958667" xlink:href="#C0_0_97e01ffdbf" y="285.557064"/>
    </g>
    <g clip-path="url(#p76b2a742b5)">
     <use style="fill:#fde725;stroke:#fde725;" x="184.103399" xlink:href="#C0_0_97e01ffdbf" y="290.119046"/>
    </g>
    <g clip-path="url(#p76b2a742b5)">
     <use style="fill:#fde725;stroke:#fde725;" x="176.856677" xlink:href="#C0_0_97e01ffdbf" y="293.959898"/>
    </g>
    <g clip-path="url(#p76b2a742b5)">
     <use style="fill:#fde725;stroke:#fde725;" x="199.798039" xlink:href="#C0_0_97e01ffdbf" y="230.9752"/>
    </g>
    <g clip-path="url(#p76b2a742b5)">
     <use style="fill:#fde725;stroke:#fde725;" x="180.064195" xlink:href="#C0_0_97e01ffdbf" y="293.923465"/>
    </g>
    <g clip-path="url(#p76b2a742b5)">
     <use style="fill:#fde725;stroke:#fde725;" x="184.21401" xlink:href="#C0_0_97e01ffdbf" y="288.598714"/>
    </g>
    <g clip-path="url(#p76b2a742b5)">
     <use style="fill:#fde725;stroke:#fde725;" x="181.844887" xlink:href="#C0_0_97e01ffdbf" y="291.434446"/>
    </g>
    <g clip-path="url(#p76b2a742b5)">
     <use style="fill:#fde725;stroke:#fde725;" x="183.103251" xlink:href="#C0_0_97e01ffdbf" y="288.15031"/>
    </g>
    <g clip-path="url(#p76b2a742b5)">
     <use style="fill:#fde725;stroke:#fde725;" x="182.293598" xlink:href="#C0_0_97e01ffdbf" y="291.537686"/>
    </g>
    <g clip-path="url(#p76b2a742b5)">
     <use style="fill:#fde725;stroke:#fde725;" x="179.976022" xlink:href="#C0_0_97e01ffdbf" y="292.696398"/>
    </g>
    <g clip-path="url(#p76b2a742b5)">
     <use style="fill:#fde725;stroke:#fde725;" x="181.668137" xlink:href="#C0_0_97e01ffdbf" y="291.3471"/>
    </g>
    <g clip-path="url(#p76b2a742b5)">
     <use style="fill:#fde725;stroke:#fde725;" x="194.677184" xlink:href="#C0_0_97e01ffdbf" y="235.401594"/>
    </g>
    <g clip-path="url(#p76b2a742b5)">
     <use style="fill:#fde725;stroke:#fde725;" x="203.506661" xlink:href="#C0_0_97e01ffdbf" y="227.380919"/>
    </g>
    <g clip-path="url(#p76b2a742b5)">
     <use style="fill:#fde725;stroke:#fde725;" x="176.72359" xlink:href="#C0_0_97e01ffdbf" y="295.478119"/>
    </g>
    <g clip-path="url(#p76b2a742b5)">
     <use style="fill:#fde725;stroke:#fde725;" x="200.195607" xlink:href="#C0_0_97e01ffdbf" y="230.388672"/>
    </g>
    <g clip-path="url(#p76b2a742b5)">
     <use style="fill:#fde725;stroke:#fde725;" x="182.639581" xlink:href="#C0_0_97e01ffdbf" y="289.878669"/>
    </g>
   </g>
   <g id="matplotlib.axis_1">
    <g id="xtick_1">
     <g id="line2d_1">
      <defs>
       <path d="M 0 0 
L 0 3.5 
" id="mc5a7e8a276" style="stroke:#000000;stroke-width:0.8;"/>
      </defs>
      <g>
       <use style="stroke:#000000;stroke-width:0.8;" x="71.485882" xlink:href="#mc5a7e8a276" y="307.584"/>
      </g>
     </g>
     <g id="text_1">
      <!-- −100 -->
      <defs>
       <path d="M 10.59375 35.5 
L 73.1875 35.5 
L 73.1875 27.203125 
L 10.59375 27.203125 
z
" id="DejaVuSans-8722"/>
       <path d="M 12.40625 8.296875 
L 28.515625 8.296875 
L 28.515625 63.921875 
L 10.984375 60.40625 
L 10.984375 69.390625 
L 28.421875 72.90625 
L 38.28125 72.90625 
L 38.28125 8.296875 
L 54.390625 8.296875 
L 54.390625 0 
L 12.40625 0 
z
" id="DejaVuSans-49"/>
       <path d="M 31.78125 66.40625 
Q 24.171875 66.40625 20.328125 58.90625 
Q 16.5 51.421875 16.5 36.375 
Q 16.5 21.390625 20.328125 13.890625 
Q 24.171875 6.390625 31.78125 6.390625 
Q 39.453125 6.390625 43.28125 13.890625 
Q 47.125 21.390625 47.125 36.375 
Q 47.125 51.421875 43.28125 58.90625 
Q 39.453125 66.40625 31.78125 66.40625 
z
M 31.78125 74.21875 
Q 44.046875 74.21875 50.515625 64.515625 
Q 56.984375 54.828125 56.984375 36.375 
Q 56.984375 17.96875 50.515625 8.265625 
Q 44.046875 -1.421875 31.78125 -1.421875 
Q 19.53125 -1.421875 13.0625 8.265625 
Q 6.59375 17.96875 6.59375 36.375 
Q 6.59375 54.828125 13.0625 64.515625 
Q 19.53125 74.21875 31.78125 74.21875 
z
" id="DejaVuSans-48"/>
      </defs>
      <g transform="translate(57.752289 322.182437)scale(0.1 -0.1)">
       <use xlink:href="#DejaVuSans-8722"/>
       <use x="83.789062" xlink:href="#DejaVuSans-49"/>
       <use x="147.412109" xlink:href="#DejaVuSans-48"/>
       <use x="211.035156" xlink:href="#DejaVuSans-48"/>
      </g>
     </g>
    </g>
    <g id="xtick_2">
     <g id="line2d_2">
      <g>
       <use style="stroke:#000000;stroke-width:0.8;" x="149.576522" xlink:href="#mc5a7e8a276" y="307.584"/>
      </g>
     </g>
     <g id="text_2">
      <!-- −50 -->
      <defs>
       <path d="M 10.796875 72.90625 
L 49.515625 72.90625 
L 49.515625 64.59375 
L 19.828125 64.59375 
L 19.828125 46.734375 
Q 21.96875 47.46875 24.109375 47.828125 
Q 26.265625 48.1875 28.421875 48.1875 
Q 40.625 48.1875 47.75 41.5 
Q 54.890625 34.8125 54.890625 23.390625 
Q 54.890625 11.625 47.5625 5.09375 
Q 40.234375 -1.421875 26.90625 -1.421875 
Q 22.3125 -1.421875 17.546875 -0.640625 
Q 12.796875 0.140625 7.71875 1.703125 
L 7.71875 11.625 
Q 12.109375 9.234375 16.796875 8.0625 
Q 21.484375 6.890625 26.703125 6.890625 
Q 35.15625 6.890625 40.078125 11.328125 
Q 45.015625 15.765625 45.015625 23.390625 
Q 45.015625 31 40.078125 35.4375 
Q 35.15625 39.890625 26.703125 39.890625 
Q 22.75 39.890625 18.8125 39.015625 
Q 14.890625 38.140625 10.796875 36.28125 
z
" id="DejaVuSans-53"/>
      </defs>
      <g transform="translate(139.024179 322.182437)scale(0.1 -0.1)">
       <use xlink:href="#DejaVuSans-8722"/>
       <use x="83.789062" xlink:href="#DejaVuSans-53"/>
       <use x="147.412109" xlink:href="#DejaVuSans-48"/>
      </g>
     </g>
    </g>
    <g id="xtick_3">
     <g id="line2d_3">
      <g>
       <use style="stroke:#000000;stroke-width:0.8;" x="227.667162" xlink:href="#mc5a7e8a276" y="307.584"/>
      </g>
     </g>
     <g id="text_3">
      <!-- 0 -->
      <g transform="translate(224.485912 322.182437)scale(0.1 -0.1)">
       <use xlink:href="#DejaVuSans-48"/>
      </g>
     </g>
    </g>
    <g id="xtick_4">
     <g id="line2d_4">
      <g>
       <use style="stroke:#000000;stroke-width:0.8;" x="305.757802" xlink:href="#mc5a7e8a276" y="307.584"/>
      </g>
     </g>
     <g id="text_4">
      <!-- 50 -->
      <g transform="translate(299.395302 322.182437)scale(0.1 -0.1)">
       <use xlink:href="#DejaVuSans-53"/>
       <use x="63.623047" xlink:href="#DejaVuSans-48"/>
      </g>
     </g>
    </g>
    <g id="xtick_5">
     <g id="line2d_5">
      <g>
       <use style="stroke:#000000;stroke-width:0.8;" x="383.848442" xlink:href="#mc5a7e8a276" y="307.584"/>
      </g>
     </g>
     <g id="text_5">
      <!-- 100 -->
      <g transform="translate(374.304692 322.182437)scale(0.1 -0.1)">
       <use xlink:href="#DejaVuSans-49"/>
       <use x="63.623047" xlink:href="#DejaVuSans-48"/>
       <use x="127.246094" xlink:href="#DejaVuSans-48"/>
      </g>
     </g>
    </g>
   </g>
   <g id="matplotlib.axis_2">
    <g id="ytick_1">
     <g id="line2d_6">
      <defs>
       <path d="M 0 0 
L -3.5 0 
" id="m4b9f1ff3d6" style="stroke:#000000;stroke-width:0.8;"/>
      </defs>
      <g>
       <use style="stroke:#000000;stroke-width:0.8;" x="57.6" xlink:href="#m4b9f1ff3d6" y="302.318825"/>
      </g>
     </g>
     <g id="text_6">
      <!-- −100 -->
      <g transform="translate(23.132812 306.118044)scale(0.1 -0.1)">
       <use xlink:href="#DejaVuSans-8722"/>
       <use x="83.789062" xlink:href="#DejaVuSans-49"/>
       <use x="147.412109" xlink:href="#DejaVuSans-48"/>
       <use x="211.035156" xlink:href="#DejaVuSans-48"/>
      </g>
     </g>
    </g>
    <g id="ytick_2">
     <g id="line2d_7">
      <g>
       <use style="stroke:#000000;stroke-width:0.8;" x="57.6" xlink:href="#m4b9f1ff3d6" y="271.885599"/>
      </g>
     </g>
     <g id="text_7">
      <!-- −75 -->
      <defs>
       <path d="M 8.203125 72.90625 
L 55.078125 72.90625 
L 55.078125 68.703125 
L 28.609375 0 
L 18.3125 0 
L 43.21875 64.59375 
L 8.203125 64.59375 
z
" id="DejaVuSans-55"/>
      </defs>
      <g transform="translate(29.495313 275.684818)scale(0.1 -0.1)">
       <use xlink:href="#DejaVuSans-8722"/>
       <use x="83.789062" xlink:href="#DejaVuSans-55"/>
       <use x="147.412109" xlink:href="#DejaVuSans-53"/>
      </g>
     </g>
    </g>
    <g id="ytick_3">
     <g id="line2d_8">
      <g>
       <use style="stroke:#000000;stroke-width:0.8;" x="57.6" xlink:href="#m4b9f1ff3d6" y="241.452372"/>
      </g>
     </g>
     <g id="text_8">
      <!-- −50 -->
      <g transform="translate(29.495313 245.251591)scale(0.1 -0.1)">
       <use xlink:href="#DejaVuSans-8722"/>
       <use x="83.789062" xlink:href="#DejaVuSans-53"/>
       <use x="147.412109" xlink:href="#DejaVuSans-48"/>
      </g>
     </g>
    </g>
    <g id="ytick_4">
     <g id="line2d_9">
      <g>
       <use style="stroke:#000000;stroke-width:0.8;" x="57.6" xlink:href="#m4b9f1ff3d6" y="211.019146"/>
      </g>
     </g>
     <g id="text_9">
      <!-- −25 -->
      <defs>
       <path d="M 19.1875 8.296875 
L 53.609375 8.296875 
L 53.609375 0 
L 7.328125 0 
L 7.328125 8.296875 
Q 12.9375 14.109375 22.625 23.890625 
Q 32.328125 33.6875 34.8125 36.53125 
Q 39.546875 41.84375 41.421875 45.53125 
Q 43.3125 49.21875 43.3125 52.78125 
Q 43.3125 58.59375 39.234375 62.25 
Q 35.15625 65.921875 28.609375 65.921875 
Q 23.96875 65.921875 18.8125 64.3125 
Q 13.671875 62.703125 7.8125 59.421875 
L 7.8125 69.390625 
Q 13.765625 71.78125 18.9375 73 
Q 24.125 74.21875 28.421875 74.21875 
Q 39.75 74.21875 46.484375 68.546875 
Q 53.21875 62.890625 53.21875 53.421875 
Q 53.21875 48.921875 51.53125 44.890625 
Q 49.859375 40.875 45.40625 35.40625 
Q 44.1875 33.984375 37.640625 27.21875 
Q 31.109375 20.453125 19.1875 8.296875 
z
" id="DejaVuSans-50"/>
      </defs>
      <g transform="translate(29.495313 214.818365)scale(0.1 -0.1)">
       <use xlink:href="#DejaVuSans-8722"/>
       <use x="83.789062" xlink:href="#DejaVuSans-50"/>
       <use x="147.412109" xlink:href="#DejaVuSans-53"/>
      </g>
     </g>
    </g>
    <g id="ytick_5">
     <g id="line2d_10">
      <g>
       <use style="stroke:#000000;stroke-width:0.8;" x="57.6" xlink:href="#m4b9f1ff3d6" y="180.58592"/>
      </g>
     </g>
     <g id="text_10">
      <!-- 0 -->
      <g transform="translate(44.2375 184.385138)scale(0.1 -0.1)">
       <use xlink:href="#DejaVuSans-48"/>
      </g>
     </g>
    </g>
    <g id="ytick_6">
     <g id="line2d_11">
      <g>
       <use style="stroke:#000000;stroke-width:0.8;" x="57.6" xlink:href="#m4b9f1ff3d6" y="150.152693"/>
      </g>
     </g>
     <g id="text_11">
      <!-- 25 -->
      <g transform="translate(37.875 153.951912)scale(0.1 -0.1)">
       <use xlink:href="#DejaVuSans-50"/>
       <use x="63.623047" xlink:href="#DejaVuSans-53"/>
      </g>
     </g>
    </g>
    <g id="ytick_7">
     <g id="line2d_12">
      <g>
       <use style="stroke:#000000;stroke-width:0.8;" x="57.6" xlink:href="#m4b9f1ff3d6" y="119.719467"/>
      </g>
     </g>
     <g id="text_12">
      <!-- 50 -->
      <g transform="translate(37.875 123.518685)scale(0.1 -0.1)">
       <use xlink:href="#DejaVuSans-53"/>
       <use x="63.623047" xlink:href="#DejaVuSans-48"/>
      </g>
     </g>
    </g>
    <g id="ytick_8">
     <g id="line2d_13">
      <g>
       <use style="stroke:#000000;stroke-width:0.8;" x="57.6" xlink:href="#m4b9f1ff3d6" y="89.28624"/>
      </g>
     </g>
     <g id="text_13">
      <!-- 75 -->
      <g transform="translate(37.875 93.085459)scale(0.1 -0.1)">
       <use xlink:href="#DejaVuSans-55"/>
       <use x="63.623047" xlink:href="#DejaVuSans-53"/>
      </g>
     </g>
    </g>
    <g id="ytick_9">
     <g id="line2d_14">
      <g>
       <use style="stroke:#000000;stroke-width:0.8;" x="57.6" xlink:href="#m4b9f1ff3d6" y="58.853014"/>
      </g>
     </g>
     <g id="text_14">
      <!-- 100 -->
      <g transform="translate(31.5125 62.652233)scale(0.1 -0.1)">
       <use xlink:href="#DejaVuSans-49"/>
       <use x="63.623047" xlink:href="#DejaVuSans-48"/>
       <use x="127.246094" xlink:href="#DejaVuSans-48"/>
      </g>
     </g>
    </g>
   </g>
   <g id="patch_3">
    <path d="M 57.6 307.584 
L 57.6 41.472 
" style="fill:none;stroke:#000000;stroke-linecap:square;stroke-linejoin:miter;stroke-width:0.8;"/>
   </g>
   <g id="patch_4">
    <path d="M 414.72 307.584 
L 414.72 41.472 
" style="fill:none;stroke:#000000;stroke-linecap:square;stroke-linejoin:miter;stroke-width:0.8;"/>
   </g>
   <g id="patch_5">
    <path d="M 57.6 307.584 
L 414.72 307.584 
" style="fill:none;stroke:#000000;stroke-linecap:square;stroke-linejoin:miter;stroke-width:0.8;"/>
   </g>
   <g id="patch_6">
    <path d="M 57.6 41.472 
L 414.72 41.472 
" style="fill:none;stroke:#000000;stroke-linecap:square;stroke-linejoin:miter;stroke-width:0.8;"/>
   </g>
  </g>
 </g>
 <defs>
  <clipPath id="p76b2a742b5">
   <rect height="266.112" width="357.12" x="57.6" y="41.472"/>
  </clipPath>
 </defs>
</svg>
